<?xml version="1.0" standalone="no"?>
<!DOCTYPE svg PUBLIC "-//W3C//DTD SVG 1.1//EN" "http://www.w3.org/Graphics/SVG/1.1/DTD/svg11.dtd" >
<svg xmlns="http://www.w3.org/2000/svg">
<metadata>Generated by IcoMoon</metadata>
<defs>
<font id="emlakkonut" horiz-adv-x="1024">
<font-face units-per-em="1024" ascent="960" descent="-64" />
<missing-glyph horiz-adv-x="1024" />
<glyph unicode="&#x20;" horiz-adv-x="512" d="" />
<glyph unicode="&#xe900;" glyph-name="menu" d="M896 469.334h-768c-23.467 0-42.667-19.2-42.667-42.667s19.2-42.667 42.667-42.667h768c23.467 0 42.667 19.2 42.667 42.667s-19.2 42.667-42.667 42.667zM128 640h768c23.467 0 42.667 19.2 42.667 42.667s-19.2 42.667-42.667 42.667h-768c-23.467 0-42.667-19.2-42.667-42.667s19.2-42.667 42.667-42.667zM896 213.334h-768c-23.467 0-42.667-19.2-42.667-42.667s19.2-42.667 42.667-42.667h768c23.467 0 42.667 19.2 42.667 42.667s-19.2 42.667-42.667 42.667z" />
<glyph unicode="&#xe901;" glyph-name="lock" d="M810.667 512h-42.667v128c0 141.067-114.933 256-256 256s-256-114.933-256-256v-128h-42.667c-70.667 0-128-57.333-128-128v-298.667c0-70.667 57.333-128 128-128h597.333c70.667 0 128 57.333 128 128v298.667c0 70.667-57.333 128-128 128zM341.333 640c0 94.133 76.533 170.667 170.667 170.667s170.667-76.533 170.667-170.667v-128h-341.333v128zM853.333 85.334c0-23.467-19.2-42.667-42.667-42.667h-597.333c-23.467 0-42.667 19.2-42.667 42.667v298.667c0 23.467 19.2 42.667 42.667 42.667h597.333c23.467 0 42.667-19.2 42.667-42.667v-298.667z" />
<glyph unicode="&#xe902;" glyph-name="user" d="M804.8 273.334c-78.667 44-182.667 68-292.8 68s-214.133-24-292.8-68c-86.4-48-133.867-114.667-133.867-188v-42.667c0-23.467 19.2-42.667 42.667-42.667s42.667 19.2 42.667 42.667v42.667c0 40.267 32.8 81.6 90.133 113.6 66.133 36.8 155.2 57.067 251.2 57.067s185.067-20.267 251.2-57.067c57.333-32 90.133-73.333 90.133-113.6v-42.667c0-23.467 19.2-42.667 42.667-42.667s42.667 19.2 42.667 42.667v42.667c0 73.333-47.467 140-133.867 188zM513.867 428.534c117.6 0 213.333 95.733 213.333 213.333 0 10.667-0.8 21.333-2.133 30.933v0.267c0 0.533 0 0.8-0.267 1.333-6.933 45.067-27.733 86.133-60 118.4s-73.333 53.067-118.4 60c-10.667 1.6-21.6 2.4-32.533 2.4-117.6 0-213.333-95.733-213.333-213.333s95.733-213.333 213.333-213.333zM513.867 769.867c6.667 0 13.067-0.533 19.467-1.6 54.4-8.267 98.4-52 106.933-106.4v-0.267c0-0.533 0-0.8 0.267-1.333 0.8-5.6 1.333-12 1.333-18.4 0-70.667-57.333-128-128-128s-128 57.333-128 128 57.333 128 128 128z" />
<glyph unicode="&#xe903;" glyph-name="plus" d="M810.667 469.334h-256v256c0 23.467-19.2 42.667-42.667 42.667s-42.667-19.2-42.667-42.667v-256h-256c-23.467 0-42.667-19.2-42.667-42.667s19.2-42.667 42.667-42.667h256v-256c0-23.467 19.2-42.667 42.667-42.667s42.667 19.2 42.667 42.667v256h256c23.467 0 42.667 19.2 42.667 42.667s-19.2 42.667-42.667 42.667z" />
<glyph unicode="&#xe904;" glyph-name="Accept" horiz-adv-x="1025" d="M512.117 938.944c-282.806-0.085-512.032-229.364-512.032-512.181 0-282.87 229.311-512.181 512.181-512.181s512.181 229.311 512.181 512.181c-0.085 282.888-229.431 512.181-512.331 512.181zM716.836 604.926s-226.066-393.513-229.908-397.163c-5.71-5.36-13.416-8.652-21.891-8.652-9.208 0-17.507 3.886-23.349 10.108l-146.457 135.016c-5.359 5.711-8.65 13.417-8.65 21.891 0 17.687 14.338 32.025 32.025 32.025 9.213 0 17.516-3.89 23.359-10.117l114.65-105.643 204.719 354.597c5.645 9.643 15.954 16.017 27.751 16.017 17.7 0 32.049-14.349 32.049-32.049 0-5.903-1.596-11.433-4.38-16.183z" />
<glyph unicode="&#xe905;" glyph-name="Asset-2" horiz-adv-x="1043" d="M0 829.162v-807.924l615.313-106.572v1024zM364.69 218.086v0c-2.281 6.192-13.362 32.591-32.591 80.825s-32.591 75.285-34.872 83.106v0l-65.181-157.087-88.321 5.866 104.616 195.544-95.817 195.544 89.95 4.889 57.36-152.85 68.44 160.020 92.884 5.866-110.482-211.514 114.067-215.75zM1037.362 811.563c-3.686 1.048-7.919 1.65-12.293 1.65-0.491 0-0.98-0.008-1.467-0.023l-349.627 0.002v-775.659h349.372c5.54 0 10.103 8.148 13.688 19.554 3.060 8.178 5.050 17.632 5.532 27.483l0.009 717.215c0.326 6.518-1.63 8.799-5.215 9.777zM912.54 455.021v-220.313h-97.772v220.313h-68.44l114.719 162.954 115.697-162.954z" />
<glyph unicode="&#xe906;" glyph-name="Cancel" d="M511.904 938.945c-282.806-0.085-512.032-229.364-512.032-512.181 0-282.87 229.311-512.181 512.181-512.181s512.181 229.311 512.181 512.181c0 0.019 0 0.041 0 0.064 0 282.835-229.283 512.117-512.117 512.117-0.075 0-0.15 0-0.225 0zM693.141 290.931c5.325-5.703 8.594-13.384 8.594-21.829 0-17.685-14.336-32.021-32.021-32.021-8.445 0-16.126 3.269-21.848 8.611l-135.749 135.622-136.622-136.622c-5.873-6.117-14.118-9.917-23.25-9.917-17.791 0-32.213 14.422-32.213 32.213 0 9.17 3.832 17.445 9.981 23.311l136.634 136.634-135.768 135.64c-6.278 5.862-10.191 14.187-10.191 23.427 0 17.685 14.336 32.021 32.021 32.021 9.24 0 17.565-3.913 23.409-10.173l135.785-135.637 137.475 137.539c5.843 5.851 13.92 9.471 22.841 9.471 17.828 0 32.28-14.452 32.28-32.28 0-8.906-3.607-16.969-9.439-22.81l-137.689-137.539z" />
<glyph unicode="&#xe907;" glyph-name="Cancell" horiz-adv-x="1039" d="M10.008-74.873c6.698-6.547 15.871-10.587 25.988-10.587s19.29 4.040 25.995 10.594l457.127 450.638 457.134-450.645c6.509-6.542 15.519-10.591 25.474-10.591 0.124 0 0.248 0.001 0.372 0.002 10.043 0.027 19.156 4.063 25.814 10.595 6.577 6.52 10.653 15.565 10.653 25.563s-4.076 19.043-10.656 25.566l-457.137 450.648 457.134 450.677c6.583 6.525 10.659 15.571 10.659 25.569s-4.076 19.043-10.656 25.566c-6.643 6.546-15.764 10.587-25.829 10.587s-19.187-4.041-25.831-10.588l-457.13-450.641-457.134 450.645c-6.698 6.547-15.871 10.587-25.988 10.587s-19.29-4.040-25.995-10.594c-6.576-6.518-10.652-15.564-10.652-25.562s4.076-19.043 10.656-25.566l457.137-450.68-457.134-450.645c-6.583-6.525-10.659-15.571-10.659-25.569s4.076-19.043 10.656-25.566z" />
<glyph unicode="&#xe908;" glyph-name="Clean" horiz-adv-x="1094" d="M1055.544 686.349l-214.485 214.253c-23.855 22.867-56.292 36.946-92.017 36.946s-68.161-14.079-92.064-36.991l-619.576-618.916c-23.618-23.493-38.234-56.015-38.234-91.95s14.616-68.458 38.229-91.945l174.771-174.473c5.479-5.442 13.028-8.805 21.363-8.805 0.053 0 0.107 0 0.16 0h220.435c8.379 0.022 15.97 3.378 21.52 8.81l580.229 579.236c23.427 23.506 37.912 55.937 37.912 91.752 0 35.979-14.618 68.544-38.239 92.079zM441.548-24.728h-195.618l-165.498 165.498c-12.719 12.434-20.605 29.765-20.605 48.938s7.886 36.503 20.592 48.925l144.989 144.988 312.791-312.129zM1012.845 545.544l-431.618-430.857-312.791 312.129 431.618 430.89c12.466 12.691 29.808 20.556 48.987 20.556s36.522-7.865 48.977-20.546l214.495-214.065c12.65-12.59 20.478-30.016 20.478-49.269 0-19.089-7.695-36.38-20.151-48.942z" />
<glyph unicode="&#xe909;" glyph-name="Closex" d="M873.703 788.684c-92.593 92.513-220.467 149.728-361.703 149.728-282.634 0-511.753-229.12-511.753-511.753 0-141.397 57.345-269.4 150.047-362.022 92.597-92.517 220.47-149.732 361.707-149.732 282.634 0 511.753 229.12 511.753 511.753 0 141.397-57.345 269.4-150.047 362.022zM832.413 105.792c-82.128-82.146-195.596-132.955-320.931-132.955-250.634 0-453.814 203.179-453.814 453.814s203.179 453.814 453.814 453.814c125.335 0 238.803-50.809 320.93-132.954 82.79-81.802 134.065-195.339 134.065-320.851s-51.274-239.050-134.019-320.807zM738.271 652.277c-5.28 5.291-12.581 8.564-20.645 8.564s-15.365-3.273-20.645-8.563l-184.981-184.453-184.981 184.452c-5.28 5.291-12.581 8.564-20.645 8.564s-15.365-3.273-20.645-8.563c-5.353-5.227-8.672-12.516-8.672-20.58s3.319-15.352 8.666-20.574l184.986-184.458-184.981-184.452c-5.352-5.227-8.672-12.515-8.672-20.579s3.319-15.352 8.666-20.574c5.606-5.284 13.153-8.551 21.462-8.627 0.016 0 0.016 0 0.017 0 7.816 0 14.859 3.31 19.803 8.606l184.995 184.468 184.981-184.452c5.011-5.234 12.022-8.519 19.8-8.621 0.34-0.015 0.716-0.024 1.095-0.024 7.488 0 14.196 3.34 18.716 8.612 5.38 5.26 8.699 12.549 8.699 20.612s-3.319 15.352-8.666 20.574l-183.335 184.458 184.981 184.452c5.352 5.227 8.672 12.515 8.672 20.579s-3.319 15.352-8.666 20.574z" />
<glyph unicode="&#xe90a;" glyph-name="delete" horiz-adv-x="834" d="M716.421 816.166h-160.427c-9 69.368-67.712 122.4-138.809 122.4s-129.808-53.032-138.734-121.697l-160.501-0.703c-0.113 0-0.246 0.001-0.38 0.001-64.799 0-117.355-52.422-117.57-117.171v-6.089c0.061-49.118 30.506-91.109 73.547-108.192l0.788-553.236c0.43-64.606 52.902-116.812 117.568-116.812 0.134 0 0.268 0 0.403 0.001h449.781c0.113 0 0.248-0.001 0.382-0.001 64.666 0 117.138 52.207 117.568 116.772v553.001c43.829 17.359 74.274 59.35 74.335 108.46v6.076c-0.215 64.769-52.771 117.192-117.57 117.192-0.134 0-0.267 0-0.4-0.001zM417.185 883.295c40.391-0.089 74.099-28.592 82.201-66.577l-164.5-0.552c8.2 38.537 41.908 67.040 82.289 67.129zM703.905 31.479c-0.172-33.969-27.749-61.44-61.743-61.44-0.027 0-0.054 0-0.081 0h-449.797c-0.023 0-0.050 0-0.077 0-33.993 0-61.57 27.471-61.743 61.424v544.633h573.44v-544.616zM778.619 692.907c-0.364-34.010-28.020-61.44-62.081-61.44-0.041 0-0.082 0-0.124 0h-598.465c-0.035 0-0.076 0-0.117 0-34.062 0-61.717 27.43-62.081 61.406v6.103c0.364 34.010 28.020 61.44 62.081 61.44 0.041 0 0.082 0 0.124 0h598.465c0.035 0 0.076 0 0.117 0 34.062 0 61.717-27.43 62.081-61.406v-6.103zM267.378 40.96c0.023 0 0.049 0 0.076 0 15.458 0 27.989 12.531 27.989 27.989 0 0.027 0 0.053 0 0.080v312.126c0 15.5-12.565 28.065-28.065 28.065s-28.065-12.565-28.065-28.065v-312.13c0-0.023 0-0.049 0-0.076 0-15.458 12.531-27.989 27.989-27.989 0.027 0 0.053 0 0.080 0zM417.185 40.96c0.023 0 0.049 0 0.076 0 15.458 0 27.989 12.531 27.989 27.989 0 0.027 0 0.053 0 0.080v312.126c0 15.5-12.565 28.065-28.065 28.065s-28.065-12.565-28.065-28.065v-312.13c0-0.023 0-0.049 0-0.076 0-15.458 12.531-27.989 27.989-27.989 0.027 0 0.053 0 0.080 0zM566.993 40.96c0.023 0 0.049 0 0.076 0 15.458 0 27.989 12.531 27.989 27.989 0 0.027 0 0.053 0 0.080v312.126c0 15.5-12.565 28.065-28.065 28.065s-28.065-12.565-28.065-28.065v-312.13c0-0.023 0-0.049 0-0.076 0-15.458 12.531-27.989 27.989-27.989 0.027 0 0.053 0 0.080 0z" />
<glyph unicode="&#xe90b;" glyph-name="designer" d="M968.704 883.371c-33.72 34.147-80.532 55.296-132.284 55.296-0.15 0-0.3 0-0.45-0.001-0.068 0-0.176 0-0.285 0-51.843 0-98.789-20.97-132.817-54.892l-565.243-562.376c-3.469-3.179-6.142-7.171-7.721-11.677l-127.857-352.047c-1.238-3.317-1.955-7.15-1.955-11.15 0-8.494 3.232-16.233 8.532-22.054 6.001-5.895 14.211-9.611 23.287-9.803 3.388 0.005 6.633 0.453 9.718 1.288l317.999 97.834c5.264 1.622 9.792 4.298 13.536 7.8l595.539 595.95c34.156 33.952 55.296 80.965 55.296 132.915s-21.14 98.964-55.287 132.906zM322.765 69.496l-118.784-36.864c-7.069 20.846-18.293 38.671-32.776 53.256-12.336 12.253-26.671 22.53-42.464 30.292l53.532 150.333h73.728v-63.898c0.023-17.635 14.313-31.926 31.947-31.949h56.527zM793.805 533.163l-389.53-389.939 11.059 52.838c0.403 1.909 0.634 4.103 0.634 6.351 0 17.621-14.174 31.931-31.742 32.151h-64.328v63.898c0.001 0.085 0.001 0.186 0.001 0.287 0 17.67-14.29 32.002-31.943 32.071h-50.387l380.518 378.061h0.41c22.449 22.397 53.434 36.247 87.655 36.247 68.543 0 124.109-55.565 124.109-124.109 0-0.071 0-0.142 0-0.213 0.002-0.231 0.003-0.518 0.003-0.805 0-34.002-13.95-64.746-36.439-86.821zM923.648 662.597l-29.901-29.491c-5.997 94.451-81.225 169.537-175.192 175.283l29.374 29.927h0.41c22.449 22.398 53.434 36.247 87.655 36.247 68.471 0 123.991-55.447 124.109-123.89-0.049-34.39-13.967-65.509-36.458-88.079zM713.523 673.246l-320.307-319.898c-5.673-5.883-9.168-13.9-9.168-22.733s3.495-16.85 9.177-22.743c5.936-5.725 14.004-9.295 22.906-9.411 8.814 0.129 16.747 3.701 22.555 9.424l319.894 320.303c6.061 5.811 9.827 13.974 9.827 23.016 0 17.6-14.267 31.867-31.867 31.867-9.043 0-17.205-3.766-23.005-9.816z" />
<glyph unicode="&#xe90c;" glyph-name="General" horiz-adv-x="1054" d="M999.255-85.097c-4.818 0.022-9.184 1.941-12.392 5.048-3.14 3.095-5.089 7.401-5.089 12.162s1.948 9.067 5.091 12.164l7.965 7.641h-792.797l7.668-7.609c3.139-3.107 5.083-7.417 5.083-12.181s-1.944-9.074-5.082-12.18c-3.191-3.129-7.564-5.060-12.389-5.060s-9.198 1.931-12.39 5.061l-36.865 36.599c-3.077 3.216-4.981 7.576-5.014 12.381v0.213c0 0.027 0 0.058 0 0.090 0 5.9 3.023 11.094 7.605 14.117l35.161 34.99c3.189 3.128 7.563 5.059 12.387 5.059s9.198-1.931 12.39-5.061c3.137-3.104 5.081-7.414 5.081-12.178s-1.944-9.074-5.082-12.18l-7.67-7.611h792.797l-7.963 7.609c-3.139 3.107-5.083 7.417-5.083 12.181s1.944 9.074 5.082 12.18c3.191 3.129 7.564 5.060 12.389 5.060s9.198-1.931 12.39-5.061l36.865-36.599c3.077-3.216 4.981-7.576 5.014-12.381v-0.213c0-0.027 0-0.058 0-0.090 0-5.9-3.023-11.094-7.605-14.117l-35.161-34.99c-3.204-3.102-7.569-5.021-12.383-5.043zM54.269 34.589c-0.033 0-0.072 0-0.11 0-5.841 0-10.988 2.974-14.008 7.49l-35.431 34.982c-3.139 3.107-5.083 7.417-5.083 12.181s1.944 9.074 5.082 12.18c3.141 3.119 7.466 5.046 12.241 5.046s9.101-1.927 12.241-5.045l7.667-7.638v786.485l-7.668-7.609c-3.133-3.132-7.46-5.069-12.24-5.069s-9.107 1.937-12.24 5.069c-3.145 3.099-5.093 7.405-5.093 12.166s1.948 9.067 5.091 12.164l36.869 36.604c3.108 3.117 7.406 5.045 12.155 5.045 0.082 0 0.163-0.001 0.245-0.002 6.034-0.009 11.389-2.96 14.699-7.498l35.134-35.002c3.139-3.107 5.083-7.417 5.083-12.181s-1.944-9.074-5.082-12.18c-3.141-3.119-7.466-5.046-12.241-5.046s-9.101 1.927-12.241 5.045l-7.667 7.638v-786.485l7.668 7.639c3.139 3.118 7.465 5.044 12.24 5.044s9.101-1.927 12.241-5.045c3.138-3.106 5.082-7.416 5.082-12.18s-1.944-9.074-5.082-12.18l-36.869-36.574c-3.108-3.117-7.406-5.045-12.155-5.045-0.082 0-0.163 0.001-0.245 0.002h-0.283zM1037.007 83.313h-838.808c-0.061-0.001-0.134-0.001-0.206-0.001-9.497 0-17.195 7.698-17.195 17.195 0 0 0 0.001 0 0.001v820.905c0.016 9.517 7.735 17.225 17.254 17.225 0.052 0 0.104 0 0.155-0.001h501.389c9.458-0.050 17.107-7.729 17.107-17.195 0-0.010 0-0.021 0-0.031v-334.224h320.304c0.053 0.001 0.115 0.001 0.177 0.001 9.513 0 17.224-7.712 17.224-17.224 0 0 0-0.001 0-0.001v-469.455c-0.016-9.501-7.722-17.196-17.224-17.196-0.062 0-0.124 0-0.186 0.001zM716.113 117.733h303.493v435.006h-303.493v-435.006zM383.421 117.733h297.889v230.672h-297.889v-230.672zM215.601 117.733h133.313v230.672h-133.313v-230.672zM366.315 382.854h314.995v187.11c0 0.015 0 0.033 0 0.050 0 1.782 0.324 3.488 0.918 5.063l-0.033 179.814h-466.594v-371.948h150.714zM466.004 789.221h216.191v115.026h-216.191v-115.026zM215.601 789.221h215.601v115.026h-215.601v-115.026z" />
<glyph unicode="&#xe90d;" glyph-name="Header" d="M607.086-85.333v60.197h18.286c0.369-0.002 0.806-0.003 1.244-0.003 16.346 0 32.382 1.331 48.004 3.89 12.144 1.925 24.502 7.006 35.162 14.371 10.64 7.847 19.335 18.312 25.096 30.44 7.201 14.83 11.289 31.689 11.289 49.504 0 1.746-0.039 3.483-0.117 5.21l0.009 335.956h-468.114v-336.201c-0.070-1.493-0.11-3.243-0.11-5.002 0-17.802 4.089-34.649 11.378-49.653 5.653-11.977 14.352-22.469 25.081-30.363 10.599-7.286 22.952-12.351 36.287-14.463 13.661-2.277 28.816-3.54 44.267-3.54 0.044 0 0.088 0 0.133 0h21.936v-60.343h-416.914v60.27h18.286c0.037 0 0.082 0 0.126 0 15.45 0 30.605 1.263 45.368 3.693 13.501 1.972 27.080 7.036 39.081 14.418 10.332 6.964 18.197 17.841 21.405 30.57 7.071 14.683 11.16 31.522 11.16 49.316 0 1.767-0.040 3.525-0.12 5.273l0.009 702.984c0.063 1.34 0.098 2.91 0.098 4.488 0 16.896-4.092 32.835-11.339 46.883-4.575 12.262-13.57 22.606-25.047 29.050-10.684 7.073-23.061 11.915-36.392 13.771-13.599 2.055-28.755 3.198-44.178 3.198-0.060 0-0.12 0-0.18 0h-18.276v60.087h416.914v-60.27h-21.943c-15.528-0.039-30.716-1.368-45.499-3.884-12.234-1.896-24.597-6.968-35.25-14.337-10.675-7.843-19.379-18.34-25.101-30.515-7.2-14.788-11.289-31.605-11.289-49.377 0-1.765 0.040-3.52 0.12-5.266l-0.009-289.764h468.114v290.011c0.072 1.508 0.113 3.275 0.113 5.051 0 17.773-4.090 34.591-11.38 49.564-5.642 11.975-14.344 22.458-25.080 30.33-10.59 7.317-22.95 12.387-36.299 14.466-14.226 2.395-30.043 3.727-46.171 3.727-0.657 0-1.313-0.002-1.969-0.007l-18.185 0.001v60.27h416.914v-60.27h-18.286c-0.563 0.005-1.228 0.007-1.893 0.007-14.839 0-29.367-1.333-43.471-3.887-13.633-1.913-27.221-6.984-39.197-14.408-10.368-6.934-18.241-17.809-21.421-30.543-7.070-14.659-11.16-31.477-11.16-49.25 0-1.777 0.041-3.544 0.122-5.301l-0.009-704.19c-0.065-1.365-0.103-2.966-0.103-4.574 0-16.854 4.094-32.753 11.342-46.755 4.426-12.204 13.476-22.44 25.042-28.549 10.604-7.228 23.086-11.907 36.569-13.102 13.477-2.042 28.691-3.198 44.174-3.203h18.29v-59.977h-416.914z" />
<glyph unicode="&#xe90e;" glyph-name="Houses" horiz-adv-x="1034" d="M1013.239 938.181h-992.759c-0.001 0-0.001 0-0.002 0-11.405 0-20.669-9.167-20.825-20.535v-982.361c0.157-11.382 9.42-20.549 20.825-20.549 0.001 0 0.001 0 0.002 0h605.375c11.349 0 20.549 9.2 20.549 20.549s-9.2 20.549-20.549 20.549h-584.548v479.267h289.844v-197.163c0-11.502 9.325-20.827 20.827-20.827s20.827 9.325 20.827 20.827v430.635c0 11.502-9.325 20.827-20.827 20.827s-20.827-9.325-20.827-20.827v-192.338h-289.844v420.812h564.068v-257.527c0-0.041 0-0.090 0-0.139 0-11.272 9.138-20.411 20.411-20.411 0.025 0 0.049 0 0.074 0h220.069c0.252-0.011 0.548-0.017 0.845-0.017 11.368 0 20.584 9.216 20.584 20.584s-9.216 20.584-20.584 20.584c-0.297 0-0.593-0.006-0.887-0.019l-199.204 0.001v236.943h345.73v-638.698h-366.557c-10.999-0.466-19.739-9.496-19.739-20.567s8.74-20.101 19.697-20.565l366.599-0.001v-261.658h-146.484c-0.252 0.011-0.548 0.017-0.845 0.017-11.368 0-20.584-9.216-20.584-20.584s9.216-20.584 20.584-20.584c0.297 0 0.593 0.006 0.887 0.019l167.269-0.001c0 0 0.001 0 0.001 0 11.417 0 20.688 9.187 20.826 20.571v982.359c0 11.503-9.325 20.827-20.827 20.827z" />
<glyph unicode="&#xe90f;" glyph-name="Image_photo" horiz-adv-x="1317" d="M658.286 554.667c-103.725-3.016-186.661-87.821-186.661-191.997 0-106.079 85.994-192.073 192.073-192.073 106.078 0 192.071 85.992 192.073 192.070-1.348 106.339-87.867 192.025-194.399 192.025-1.085 0-2.169-0.009-3.25-0.027zM1184.914 746.667h-157.257c-0.054 0-0.119 0-0.183 0-23.56 0-43.587 15.124-50.903 36.194l-44 119.528c-7.43 21.447-27.457 36.572-51.017 36.572-0.064 0-0.129 0-0.193 0h-446.162c-0.054 0-0.119 0-0.183 0-23.56 0-43.587-15.124-50.903-36.194l-44-119.528c-7.43-21.447-27.457-36.572-51.017-36.572-0.064 0-0.129 0-0.193 0h-157.247c-0.558 0.009-1.217 0.014-1.877 0.014-71.057 0-128.777-57.1-129.779-127.919l-0.001-576.094c1.003-70.913 58.723-128.014 129.78-128.014 0.66 0 1.319 0.005 1.977 0.015l1053.158-0.001c0.558-0.009 1.217-0.014 1.877-0.014 71.057 0 128.777 57.1 129.779 127.919l0.001 576.094c-1.003 70.913-58.723 128.014-129.78 128.014-0.66 0-1.319-0.005-1.977-0.015zM658.286 42.667c-172.862 5.033-311.077 146.367-311.077 319.982 0 176.792 143.318 320.11 320.11 320.11 176.785 0 320.1-143.308 320.11-320.091-2.227-177.229-146.417-320.043-323.962-320.043-1.822 0-3.64 0.015-5.455 0.045zM1137.371 529.067c-24.742 0-44.8 20.058-44.8 44.8s20.058 44.8 44.8 44.8c0.765 0.047 1.66 0.073 2.561 0.073 24.783 0 44.873-20.090 44.873-44.873s-20.090-44.873-44.873-44.873c-0.901 0-1.796 0.027-2.683 0.079z" />
<glyph unicode="&#xe910;" glyph-name="Kat_Plani" horiz-adv-x="990" d="M968.363 597.334h-150.528v298.667h150.528c11.782 0 21.333 9.551 21.333 21.333s-9.551 21.333-21.333 21.333h-172.032c-0.746-0.041-1.444-0.188-2.099-0.426-1.362-0.171-2.631-0.469-3.849-0.879-2.324-0.697-4.476-1.72-6.431-3.018l0.090 0.056c-1.309-0.795-2.423-1.571-3.486-2.41l-169.57-126.238c-0.934-0.423-1.728-0.998-2.385-1.702l-170.329-126.707c-0.688-0.289-1.263-0.732-1.7-1.288l-171.356-127.361c0-0.205-0.683-0.444-0.683-0.649l-172.032-127.761-83.968-62.089c-5.195-3.887-8.522-10.024-8.522-16.938 0-4.893 1.666-9.396 4.461-12.975 3.945-5.153 10.155-8.474 17.141-8.474 4.845 0 9.317 1.597 12.918 4.294l51.485 38.36v-277.129h-64.512c-11.794-0.057-21.351-9.554-21.504-21.319v-128.015c0.153-11.78 9.71-21.277 21.499-21.333h946.864c0.030 0 0.066 0 0.103 0 11.796 0 21.363 9.543 21.401 21.33v640.004c-0.039 11.79-9.606 21.334-21.401 21.334-0.036 0-0.072 0-0.108 0zM645.461 778.24l129.365 95.983v-276.89h-21.845c-11.708-0.097-21.163-9.611-21.163-21.333 0 0 0 0 0-0.001v-106.667h-86.357v308.907zM473.429 650.24l129.024 95.983v-276.89h-21.504c-11.794-0.057-21.351-9.554-21.504-21.319v-85.348h-86.016v287.573zM301.397 522.445l129.024 96.017v-255.795h-43.008c-0.030 0-0.066 0-0.103 0-11.796 0-21.363-9.543-21.401-21.33v-128.004h-64.512v309.111zM129.024 394.445l129.365 96.017v-277.129h-43.349c-11.794-0.057-21.351-9.554-21.504-21.319v-106.681h-64.512v309.111zM946.859-42.666h-903.851v85.333h172.032c0.042 0 0.091 0 0.14 0 11.858 0 21.495 9.507 21.705 21.314v106.686h150.528c0.030 0 0.066 0 0.103 0 11.796 0 21.363 9.543 21.401 21.33v128.004h172.032c0.030 0 0.066 0 0.103 0 11.796 0 21.363 9.543 21.401 21.33v85.337h150.528c0.042 0 0.091 0 0.14 0 11.858 0 21.495 9.507 21.705 21.314v106.686h172.032v-597.333z" />
<glyph unicode="&#xe911;" glyph-name="kroki" horiz-adv-x="1153" d="M1123.413 235.734c-16.272-0.061-29.44-13.266-29.44-29.546 0-0.038 0-0.075 0-0.113v-113.274c0.001-0.166 0.001-0.362 0.001-0.558 0-64.99-52.419-117.737-117.284-118.268h-800.477c-65.013 0.435-117.548 53.238-117.548 118.312 0 0.181 0 0.362 0.001 0.543v113.252c0 16.141-13.085 29.227-29.227 29.227s-29.227-13.085-29.227-29.227v-113.28c-0.001-0.242-0.002-0.529-0.002-0.816 0-97.468 78.639-176.569 175.931-177.317h800.498c97.363 0.748 176.002 79.85 176.002 177.318 0 0.287-0.001 0.574-0.002 0.86v113.236c0.001 0.089 0.002 0.194 0.002 0.299 0 16.168-13.071 29.283-29.221 29.354zM945.28 118.827h-737.707c-16.377 0-29.653-13.276-29.653-29.653s13.276-29.653 29.653-29.653h737.707c16.377 0 29.653 13.276 29.653 29.653s-13.276 29.653-29.653 29.653zM871.040 698.027l-245.76 221.867c-12.85 11.71-30.014 18.882-48.853 18.882s-36.003-7.172-48.911-18.934l-245.702-221.815c-6.078-5.489-9.881-13.398-9.881-22.195 0-7.626 2.858-14.584 7.561-19.862 5.34-6.031 13.139-9.833 21.827-9.833 7.527 0 14.387 2.854 19.558 7.538l226.322 204.351v-574.933c0-16.141 13.085-29.227 29.227-29.227s29.227 13.085 29.227 29.227v574.933l226.347-204.373c5.178-4.573 12.023-7.365 19.52-7.365 16.321 0 29.551 13.231 29.551 29.551 0 8.824-3.867 16.744-9.999 22.159z" />
<glyph unicode="&#xe912;" glyph-name="Link" d="M952.63 868.29c-43.639 43.761-103.991 70.836-170.667 70.836s-127.028-27.075-170.661-70.831l-170.672-171.324c-7.169-6.55-11.649-15.94-11.649-26.376s4.48-19.826 11.621-26.351c6.77-6.791 16.098-10.977 26.403-10.977s19.633 4.186 26.375 10.951l170.668 171.319c30.175 30.186 71.863 48.86 117.913 48.873 0.652 0.009 1.418 0.015 2.186 0.015 45.376 0 86.378-18.73 115.695-48.881 30.69-30.244 49.681-72.214 49.681-118.62s-18.991-88.376-49.624-118.562l-223.438-224.090c-30.125-30.29-71.831-49.036-117.915-49.036s-87.79 18.746-117.908 49.028c-6.75 6.773-16.078 10.96-26.383 10.96s-19.633-4.186-26.375-10.951c-7.17-6.551-11.65-15.941-11.65-26.377s4.48-19.826 11.621-26.351c43.666-43.786 104.018-70.861 170.694-70.861s127.028 27.075 170.661 70.831l223.424 224.044c44.097 43.745 71.396 104.367 71.396 171.365s-27.299 127.619-71.38 171.349zM505.794 183.017l-145.842-144.974c-30.166-30.195-71.855-48.873-117.907-48.873-0.003 0-0.006 0-0.009 0-0.658-0.010-1.435-0.015-2.213-0.015-45.361 0-86.35 18.718-115.666 48.851-30.242 30.461-48.91 72.376-48.91 118.65s18.668 88.189 48.883 118.623l210.996 210.996c29.38 30.171 70.394 48.887 115.779 48.887 0.751 0 1.501-0.005 2.249-0.015 45.939-0.011 87.627-18.686 117.801-48.871 6.744-6.766 16.071-10.953 26.376-10.953s19.633 4.186 26.375 10.951c7.17 6.551 11.65 15.941 11.65 26.377s-4.48 19.826-11.621 26.351c-43.67 43.778-104.021 70.848-170.694 70.848s-127.024-27.070-170.662-70.819l-211.011-211.011c-43.885-43.814-71.033-104.38-71.033-171.288 0-133.555 108.172-241.844 241.681-242.036 0.145 0 0.295 0 0.445 0 66.52 0 126.726 27.032 170.232 70.71l145.85 144.982c7.169 6.55 11.649 15.94 11.649 26.376s-4.48 19.826-11.621 26.351c-6.764 6.754-16.067 10.915-26.341 10.915-10.336 0-19.689-4.211-26.435-11.012z" />
<glyph unicode="&#xe913;" glyph-name="Map" horiz-adv-x="728" d="M367.54 714.487c-71.544-1.023-129.148-59.259-129.148-130.949 0-72.328 58.634-130.962 130.962-130.962 72.324 0 130.955 58.627 130.962 130.949-0.637 72.466-59.529 130.965-132.084 130.965-0.243 0-0.487-0.001-0.73-0.002zM367.54 490.004c-51.025 0.774-92.091 42.319-92.091 93.456 0 51.62 41.846 93.466 93.466 93.466 51.616 0 93.46-41.84 93.466-93.455-0.497-51.727-42.545-93.468-94.341-93.468-0.175 0-0.351 0-0.526 0.001zM621.547 833.903c-66.244 64.983-157.091 105.091-257.306 105.091s-191.062-40.108-257.364-105.148c-126.945-125.325-142.889-361.243-34.029-504.163l291.393-415.098 290.843 414.521c109.41 143.497 93.466 379.416-33.538 504.798zM624.296 350.987l-260.055-370.647-260.605 371.114c-98.689 129.67-84.669 342.717 30.239 455.893 59.305 58.186 140.641 94.101 230.366 94.101s171.061-35.914 230.417-94.151c114.581-113.015 128.876-326.062 29.637-456.392z" />
<glyph unicode="&#xe914;" glyph-name="Paragraph" horiz-adv-x="843" d="M795.106 938.667h-530.071c-0.838 0.010-1.828 0.015-2.818 0.015-145.676 0-263.77-118.094-263.77-263.77s118.094-263.77 263.77-263.77c0.991 0 1.981 0.005 2.969 0.016l108.273-0.001v-449.928c0-26.614 21.575-48.188 48.188-48.188s48.188 21.575 48.188 48.188v884.344h93.365v-884.344c0-0.041 0-0.089 0-0.138 0-25.204 20.078-45.719 45.112-46.423 0.398-0.010 0.789-0.015 1.182-0.015 25.823 0 46.789 20.792 47.071 46.548v884.371h138.541c0.353-0.010 0.768-0.015 1.184-0.015 25.715 0 46.562 20.846 46.562 46.562s-20.846 46.562-46.562 46.562c-0.416 0-0.832-0.005-1.245-0.016zM265.035 504.25c-0.674-0.010-1.47-0.015-2.267-0.015-94.262 0-170.677 76.415-170.677 170.677s76.415 170.677 170.677 170.677c0.797 0 1.593-0.005 2.388-0.016l108.303 0.001v-341.323h-108.424z" />
<glyph unicode="&#xe915;" glyph-name="Plots" horiz-adv-x="1054" d="M527.027 350.629c-9.086 0-16.452-7.366-16.452-16.452v-61.834c0-9.086 7.366-16.452 16.452-16.452s16.452 7.366 16.452 16.452v61.806c0 0.008 0 0.018 0 0.027 0 9.086-7.366 16.452-16.452 16.452 0 0 0 0 0 0zM527.027 597.855c-9.086 0-16.452-7.366-16.452-16.452v-61.806c0-9.086 7.366-16.452 16.452-16.452s16.452 7.366 16.452 16.452c0 0 0 0 0 0v61.806c0 9.086-7.366 16.452-16.452 16.452zM527.027 226.989c-9.086 0-16.452-7.366-16.452-16.452v-61.834c0-9.086 7.366-16.452 16.452-16.452s16.452 7.366 16.452 16.452v61.834c0 9.086-7.366 16.452-16.452 16.452zM527.027 721.495c-9.086 0-16.452-7.366-16.452-16.452v-61.834c0-9.086 7.366-16.452 16.452-16.452s16.452 7.366 16.452 16.452c0 0 0 0 0 0v61.834c0 9.086-7.366 16.452-16.452 16.452zM310.129 443.339h-61.971c-9.086 0-16.452-7.366-16.452-16.452s7.366-16.452 16.452-16.452h61.971c9.086 0 16.452 7.366 16.452 16.452s-7.366 16.452-16.452 16.452zM434.070 443.339h-61.971c-9.086 0-16.452-7.366-16.452-16.452s7.366-16.452 16.452-16.452h61.971c9.086 0 16.452 7.366 16.452 16.452s-7.366 16.452-16.452 16.452zM558.012 443.339h-14.533v14.451c0 9.086-7.366 16.452-16.452 16.452s-16.452-7.366-16.452-16.452c0 0 0 0 0 0v-14.451h-14.533c-9.086 0-16.452-7.366-16.452-16.452s7.366-16.452 16.452-16.452h14.533v-14.451c0-9.086 7.366-16.452 16.452-16.452s16.452 7.366 16.452 16.452c0 0 0 0 0 0v14.451h14.533c9.086 0 16.452 7.366 16.452 16.452s-7.366 16.452-16.452 16.452zM805.895 443.339h-61.971c-9.086 0-16.452-7.366-16.452-16.452s7.366-16.452 16.452-16.452h61.971c9.086 0 16.452 7.366 16.452 16.452s-7.366 16.452-16.452 16.452zM681.954 443.339h-61.971c-9.086 0-16.452-7.366-16.452-16.452s7.366-16.452 16.452-16.452h61.971c9.086 0 16.452 7.366 16.452 16.452s-7.366 16.452-16.452 16.452zM905.158 816.261h-756.264c-9.086 0-16.452-7.366-16.452-16.452v-745.844c-0.001-0.049-0.001-0.107-0.001-0.165 0-8.996 7.292-16.288 16.288-16.288 0.058 0 0.116 0 0.174 0.001h756.255c9.086 0 16.452 7.366 16.452 16.452v745.844c-0.047 9.051-7.395 16.37-16.452 16.37 0 0 0 0 0 0zM888.706 443.339h-20.84c-9.086 0-16.452-7.366-16.452-16.452s7.366-16.452 16.452-16.452h20.84v-340.017h-345.227v16.452c0 9.086-7.366 16.452-16.452 16.452s-16.452-7.366-16.452-16.452v-16.452h-345.227v340.017h20.84c9.086 0 16.452 7.366 16.452 16.452s-7.366 16.452-16.452 16.452h-20.84v340.017h345.227v-16.452c0-9.086 7.366-16.452 16.452-16.452s16.452 7.366 16.452 16.452c0 0 0 0 0 0v16.452h345.227v-340.017zM905.158 938.996c-9.086 0-16.452-7.366-16.452-16.452v-70.17c0-9.086 7.366-16.452 16.452-16.452s16.452 7.366 16.452 16.452c0 0 0 0 0 0v70.17c0 9.086-7.366 16.452-16.452 16.452zM1037.052 816.179h-70.197c-9.086 0-16.452-7.366-16.452-16.452s7.366-16.452 16.452-16.452h70.197c9.086 0 16.452 7.366 16.452 16.452s-7.366 16.452-16.452 16.452zM148.895 938.996c-0.049 0.001-0.107 0.001-0.165 0.001-8.996 0-16.288-7.292-16.288-16.288 0-0.058 0-0.116 0.001-0.174v-70.161c0-9.086 7.366-16.452 16.452-16.452s16.452 7.366 16.452 16.452v70.17c0 9.086-7.366 16.452-16.452 16.452zM87.198 816.179h-70.197c-9.086 0-16.452-7.366-16.452-16.452s7.366-16.452 16.452-16.452h70.197c9.086 0 16.452 7.366 16.452 16.452s-7.366 16.452-16.452 16.452zM905.158 17.851c-9.086 0-16.452-7.366-16.452-16.452v-70.197c0-9.086 7.366-16.452 16.452-16.452s16.452 7.366 16.452 16.452c0 0 0 0 0 0v70.197c0 9.086-7.366 16.452-16.452 16.452zM1037.052 70.472h-70.197c-9.086 0-16.452-7.366-16.452-16.452s7.366-16.452 16.452-16.452h70.197c9.086 0 16.452 7.366 16.452 16.452s-7.366 16.452-16.452 16.452zM148.895 17.851c-9.086 0-16.452-7.366-16.452-16.452v-70.197c0-9.086 7.366-16.452 16.452-16.452s16.452 7.366 16.452 16.452v70.197c0 9.086-7.366 16.452-16.452 16.452zM87.198 70.472h-70.197c-9.086 0-16.452-7.366-16.452-16.452s7.366-16.452 16.452-16.452h70.197c9.086 0 16.452 7.366 16.452 16.452s-7.366 16.452-16.452 16.452z" />
<glyph unicode="&#xe916;" glyph-name="Pointer" horiz-adv-x="478" d="M477.867 42.667h-41.643v319.829h41.643v128h-41.643v320.171h41.643v128h-124.587v-128h41.301v-219.136c-53.417 98.881-152.897 166.89-268.907 175.381l-1.087 43.755h-124.587v-128h124.587v41.643c130.936-11.436 236.612-107.029 263.166-231.886l-34.473-1.927v-128h34.816c-27.049-126.628-132.673-222.054-262.399-233.394l-1.111 41.564h-124.587v-128h124.587v43.691c117.098 8.556 216.578 76.565 269.124 173.686l0.87-217.377h-41.301v-128h124.587v128zM394.581 853.334v42.667h41.643v-42.667h-41.643zM41.643 725.334v42.667h41.643v-42.667h-41.643zM394.581 405.504v42.325h41.643v-42.325h-41.643zM83.285 128v-42.667h-41.643v42.667h41.643zM394.581-42.666v42.667h41.643v-42.667h-41.643z" />
<glyph unicode="&#xe917;" glyph-name="Polygon-1-kopia" horiz-adv-x="513" d="M-0.801 426.867l512.761 512.761v-1025.522z" />
<glyph unicode="&#xe918;" glyph-name="proje_gorseli_ekle" horiz-adv-x="1153" d="M1123.413 235.734c-16.272-0.061-29.44-13.266-29.44-29.546 0-0.038 0-0.075 0-0.113v-113.274c0.001-0.166 0.001-0.362 0.001-0.558 0-64.99-52.419-117.737-117.284-118.268h-800.477c-65.013 0.435-117.548 53.238-117.548 118.312 0 0.181 0 0.362 0.001 0.543v113.252c0 16.141-13.085 29.227-29.227 29.227s-29.227-13.085-29.227-29.227v-113.28c-0.001-0.242-0.002-0.529-0.002-0.816 0-97.468 78.639-176.569 175.931-177.317h800.498c97.363 0.748 176.002 79.85 176.002 177.318 0 0.287-0.001 0.574-0.002 0.86v113.236c0.001 0.089 0.002 0.194 0.002 0.299 0 16.168-13.071 29.283-29.221 29.354zM945.28 118.827h-737.707c-16.377 0-29.653-13.276-29.653-29.653s13.276-29.653 29.653-29.653h737.707c16.377 0 29.653 13.276 29.653 29.653s-13.276 29.653-29.653 29.653zM871.040 698.027l-245.76 221.867c-12.85 11.71-30.014 18.882-48.853 18.882s-36.003-7.172-48.911-18.934l-245.702-221.815c-6.078-5.489-9.881-13.398-9.881-22.195 0-7.626 2.858-14.584 7.561-19.862 5.34-6.031 13.139-9.833 21.827-9.833 7.527 0 14.387 2.854 19.558 7.538l226.322 204.351v-574.933c0-16.141 13.085-29.227 29.227-29.227s29.227 13.085 29.227 29.227v574.933l226.347-204.373c5.178-4.573 12.023-7.365 19.52-7.365 16.321 0 29.551 13.231 29.551 29.551 0 8.824-3.867 16.744-9.999 22.159z" />
<glyph unicode="&#xe919;" glyph-name="Projects_Icon" horiz-adv-x="1096" d="M40.518 857.71h1014.52c22.225 0 40.242 18.017 40.242 40.242s-18.017 40.242-40.242 40.242h-1014.52c-22.225 0-40.242-18.017-40.242-40.242s18.017-40.242 40.242-40.242zM1055.037 467.008h-1014.52c-0.375 0.013-0.816 0.020-1.259 0.020-22.247 0-40.282-18.035-40.282-40.282s18.035-40.282 40.282-40.282c0.443 0 0.884 0.007 1.323 0.021l1014.456-0.002c0.375-0.013 0.816-0.020 1.259-0.020 22.247 0 40.282 18.035 40.282 40.282s-18.035 40.282-40.282 40.282c-0.443 0-0.884-0.007-1.323-0.021zM1055.037-5.045h-1014.52c-22.225 0-40.242-18.017-40.242-40.242s18.017-40.242 40.242-40.242h1014.52c0.752-0.050 1.63-0.079 2.515-0.079 22.225 0 40.242 18.017 40.242 40.242s-18.017 40.242-40.242 40.242c-0.885 0-1.763-0.029-2.634-0.085z" />
<glyph unicode="&#xe91a;" glyph-name="Quantity" horiz-adv-x="1025" d="M1024.64 426.667c0-282.947-229.373-512.32-512.32-512.32s-512.32 229.373-512.32 512.32c0 282.947 229.373 512.32 512.32 512.32s512.32-229.373 512.32-512.32z" />
<glyph unicode="&#xe91b;" glyph-name="Questionmark-copy" d="M1023.674 426.59c-0.078 282.62-229.206 511.699-511.837 511.699-282.68 0-511.837-229.157-511.837-511.837 0-282.378 228.669-511.348 510.933-511.836 0.108 0 0.181 0 0.253 0 282.859 0 512.195 229.156 512.488 511.946zM418.386 584.754c-8.674-19.575-13.724-42.406-13.724-66.417 0-0.51 0.002-1.019 0.007-1.528l-60.015 0.078c-0.121 2.387-0.19 5.182-0.19 7.994 0 42.367 15.662 81.077 41.512 110.655 26.455 27.572 63.855 44.829 105.287 44.829 2.714 0 5.41-0.074 8.087-0.22 1.983 0.149 4.738 0.225 7.512 0.225 38.594 0 73.767-14.644 100.267-38.678 25.252-23.347 41.088-56.808 41.088-93.967 0-1.383-0.022-2.761-0.065-4.134 0.072-1.18 0.11-2.798 0.11-4.425 0-20.023-5.788-38.694-15.783-54.431-18.041-24.181-37.744-45.82-59.38-65.359-16.988-15.791-31.213-33.472-42.665-52.978-6.092-18.653-9.261-38.849-9.261-59.786 0-2.194 0.035-4.38 0.104-6.557l-61.737 0.318c-0.015 0.993-0.023 2.165-0.023 3.339 0 26.898 4.401 52.769 12.522 76.93 12.957 24.877 30.178 47.502 50.783 66.516l27.597 27.103c6.733 7.221 12.943 15.131 18.45 23.542 9.013 12.959 14.156 28.218 14.156 44.679 0 0.714-0.010 1.425-0.029 2.135 0.005 0.154 0.006 0.46 0.006 0.767 0 21.502-7.084 41.349-19.045 57.336-14.854 15.109-35.798 24.632-58.965 24.632-2.721 0-5.412-0.131-8.066-0.388-1.824 0.23-4.335 0.345-6.874 0.345-30.742 0-57.517-16.985-71.452-42.083zM459.539 243.872h66.873v-70.903h-66.873v70.903z" />
<glyph unicode="&#xe91c;" glyph-name="redoAsset-3" horiz-adv-x="658" d="M104.087 67.774c73.96-86.715 180.235-143.972 299.97-153.018 2.565-0.167 3.845-0.212 5.136-0.212 30.237 0 54.749 24.512 54.749 54.749 0 1.5-0.060 2.985-0.179 4.454l0.013-0.193c-1.719 26.135-22.318 46.953-48.199 49.008-177.474 5.847-318.978 150.97-318.978 329.143 0 181.867 147.432 329.299 329.299 329.299 3.694 0 7.374-0.061 11.038-0.182l-0.534-116.487c0.19-13.039 10.804-23.536 23.871-23.536 6.588 0 12.553 2.669 16.873 6.984l173.16 174.433c4.727 4.724 7.65 11.252 7.65 18.462s-2.924 13.738-7.65 18.462l-174.752 172.524c-4.285 4.127-10.122 6.67-16.552 6.67-13.18 0-23.865-10.68-23.873-23.858v-124.141c-240.833-1.86-435.348-197.523-435.348-438.618 0-108.585 39.457-207.955 104.815-284.554z" />
<glyph unicode="&#xe91d;" glyph-name="Save" horiz-adv-x="1039" d="M1012.48-85.045c0.038 0 0.083 0 0.129 0 14.354 0 26.003 11.582 26.111 25.91v758.186c-0.044 7.865-3.628 14.884-9.238 19.55l-254.762 214.786-1.92 1.248c-0.639 0.44-1.373 0.866-2.139 1.236-0.741 0.236-1.381 0.652-2.021 0.876-0.825 0.349-1.791 0.638-2.795 0.819-0.65 0.245-1.306 0.395-1.991 0.428-1.428 0.245-3.084 0.406-4.771 0.448l-732.523 0.001c-0.086 0.001-0.187 0.002-0.288 0.002-14.322 0-25.935-11.602-25.952-25.92v-972.098c0.017-14.302 11.615-25.89 25.92-25.89 0.113 0 0.225 0.001 0.337 0.002l985.903 0.416zM821.76-33.429h-604.8v387.936c0.036 7.696 6.283 13.92 13.984 13.92 0.034 0 0.068 0 0.101 0h576.635c0.048 0.001 0.104 0.001 0.16 0.001 7.688 0 13.92-6.232 13.92-13.92 0 0 0-0.001 0-0.001v-387.936zM345.92 887.019h386.56v-269.312c0.001-0.029 0.002-0.062 0.002-0.096 0-1.573-1.275-2.848-2.848-2.848-0.012 0-0.024 0-0.035 0h-380.478c-1.584 0.069-2.847 1.354-2.88 2.941v269.315h-0.32zM52.8 887.019h240.96v-269.312c0.289-30.195 24.834-54.561 55.070-54.561 0.102 0 0.204 0 0.306 0.001h380.464c0.086 0 0.188-0.001 0.29-0.001 30.236 0 54.78 24.366 55.069 54.533v239.195l201.28-169.856v-720.448h-112v387.936c-0.379 36.276-29.875 65.537-66.205 65.537-0.125 0-0.25 0-0.375-0.001h-576.621c-0.058 0-0.126 0-0.194 0-36.297 0-65.756-29.28-66.046-65.509v-388.188h-112v920.672zM486.080 775.019h114.88v-68.96c0-14.58 11.82-26.4 26.4-26.4s26.4 11.82 26.4 26.4v94.4c-0.161 14.351-11.833 25.922-26.206 25.922-0.124 0-0.248-0.001-0.372-0.003h-141.101c-0.667 0.061-1.441 0.096-2.225 0.096-14.262 0-25.824-11.562-25.824-25.824s11.562-25.824 25.824-25.824c0.783 0 1.558 0.035 2.324 0.103zM650.88 258.059h-262.72c-14.315 0-25.92-11.605-25.92-25.92s11.605-25.92 25.92-25.92h262.72c14.315 0 25.92 11.605 25.92 25.92s-11.605 25.92-25.92 25.92zM650.88 121.291h-262.72c-14.315 0-25.92-11.605-25.92-25.92s11.605-25.92 25.92-25.92h262.72c14.359 0 26 11.641 26 26s-11.641 26-26 26z" />
<glyph unicode="&#xe91e;" glyph-name="Search" d="M1023.84 48.178l-273.264 270.903c39.64 60.865 63.215 135.348 63.215 215.337 0 0.124 0 0.248 0 0.373 0.004 0.659 0.006 1.461 0.006 2.264 0 224.214-181.761 405.975-405.975 405.975s-405.975-181.761-405.975-405.975c0-224.214 181.761-405.975 405.975-405.975 76.422 0 147.913 21.116 208.955 57.832l273.032-273.726zM151.636 534.572c-0.005 0.606-0.008 1.323-0.008 2.040 0 140.976 114.284 255.26 255.26 255.26s255.26-114.284 255.26-255.26c0-140.973-114.279-255.255-255.251-255.26-0.239-0.001-0.521-0.001-0.804-0.001-140.099 0-253.753 113.22-254.456 253.153z" />
<glyph unicode="&#xe91f;" glyph-name="Select_Icon" horiz-adv-x="964" d="M951.718 527.862c-13.435 23.064-38.046 38.319-66.22 38.319-6.428 0-12.671-0.794-18.636-2.29-24.489-14.295-44.437-35.017-57.513-59.913-0.283 1.821-0.222 4.912-0.222 8.018 0 30.412-5.81 59.466-16.381 86.114-11.986 14.404-28.203 26.947-46.856 34.869-6.622 1.776-13.329 2.627-20.234 2.627-12.151 0-23.687-2.634-34.068-7.362-23.84-25.476-41.88-57.39-50.968-92.889-0.311-0.706-0.307 0.196-0.307 1.1 0 37.577-7.758 73.341-21.76 105.779-16.277 17.502-40.961 29.573-68.464 29.573-17.15 0-33.203-4.693-46.946-12.866-29.175-31.669-53.847-68.686-72.037-109.243l-1.027 299.217c0.203 2.429 0.319 5.258 0.319 8.114 0 17.512-4.353 34.008-12.035 48.464-10.748 19.427-31.681 32.741-55.724 32.741-18.276 0-34.755-7.693-46.375-20.017-11.74-16.081-18.765-36.197-18.765-57.955 0-1.237 0.023-2.468 0.068-3.694l-0.005-604.585c0.079-2.055 0.124-4.469 0.124-6.893 0-27.562-5.809-53.768-16.269-77.46-7.157-7.138-18.111-12.366-30.287-12.366-4.723 0-9.262 0.787-13.494 2.236l-110.54 119.781c-15.394 12.539-34.103 21.619-54.602 25.764-5.976 1.82-11.916 2.79-18.083 2.79-31.77 0-57.525-25.755-57.525-57.525 0-5.997 0.918-11.78 2.62-17.216 4.638-20.74 14.561-39.088 28.269-53.879l216.176-209.544c32.186-25.94 72.516-43.005 116.627-46.924 176.719-12.107 479.703-2.469 479.703-2.469 39.133 24.492 70.314 58.377 90.903 98.583 19.548 125.569 30.34 268.825 30.34 414.602 0 11.020-0.062 22.026-0.185 33.018 0.45 2.377 0.699 7.079 0.699 11.838 0 18.602-3.795 36.318-10.653 52.415z" />
<glyph unicode="&#xe920;" glyph-name="settings" d="M971.703 534.187l-72.046 12.069c-8.362 26.954-18.165 50.083-29.943 71.993l43.475 57.105c7.314 10.194 11.696 22.922 11.696 36.673 0 17.537-7.127 33.41-18.643 44.879l-63.636 63.636c-11.394 11.517-27.2 18.649-44.673 18.649-13.7 0-26.376-4.385-36.701-11.828l-59.426-42.295c-20.58 11.214-44.578 21.281-69.642 28.899l-14.472 72.038c-5.255 30.085-31.178 52.663-62.373 52.663-0.058 0-0.115 0-0.173 0h-89.957c-0.049 0-0.106 0-0.164 0-31.196 0-57.118-22.578-62.318-52.284l-12.489-73.156c-26.946-8.732-49.929-18.64-71.778-30.383l-56.588 43.183c-10.219 7.538-23.061 12.064-36.96 12.064-17.447 0-33.229-7.132-44.588-18.64l-64.007-64.007c-11.447-11.52-18.523-27.397-18.523-44.926 0-13.719 4.334-26.426 11.708-36.826l42.655-59.779c-10.509-19.761-20.077-42.91-27.421-67.028l-71.688-14.892c-30.262-5.1-53.029-31.108-53.029-62.434 0-0.036 0-0.072 0-0.108v-89.96c0-0.031 0-0.067 0-0.103 0-31.326 22.767-57.335 52.657-62.382l72.784-12.486c8.834-27.013 18.738-49.99 30.421-71.874l-43.221-56.126c-7.314-10.194-11.696-22.922-11.696-36.673 0-17.537 7.127-33.41 18.643-44.879l63.636-63.636c11.349-11.517 27.118-18.651 44.553-18.651 0.023 0 0.045 0 0.068 0 0.072 0 0.161-0.001 0.25-0.001 13.756 0 26.487 4.385 36.873 11.833l59.787 42.659c19.078-10.209 41.478-19.638 64.791-27.012l14.569-72.828c5.377-30.079 31.319-52.621 62.533-52.663h90.336c0.049 0 0.106 0 0.164 0 31.196 0 57.118 22.578 62.318 52.284l12.124 72.425c26.954 8.362 50.083 18.165 71.993 29.943l57.105-43.475c10.109-7.318 22.756-11.705 36.428-11.705 0.179 0 0.358 0.001 0.537 0.002h-0.027c0.019 0 0.042 0 0.064 0 17.435 0 33.204 7.135 44.545 18.644l63.642 63.642c11.518 11.472 18.645 27.344 18.645 44.881 0 13.751-4.382 26.479-11.826 36.863l-42.293 59.421c10.64 19.627 20.437 42.626 28.091 66.583l72.481 14.972c30.262 5.1 53.029 31.108 53.029 62.434 0 0.036 0 0.072 0 0.108v89.96c0.003 0.232 0.005 0.507 0.005 0.781 0 30.938-22.439 56.635-51.93 61.703zM966.583 381.684c0.005-0.083 0.007-0.18 0.007-0.277 0-2.723-2.082-4.961-4.741-5.207l-89.621-14.996c-11.31-2.049-20.274-10.281-23.354-21.002-8.845-34.196-21.5-64.019-37.856-91.374-1.73-2.681-3.267-7.82-3.267-13.318 0-6.205 1.959-11.953 5.292-16.659l52.968-74.516c0.558-0.904 0.888-1.999 0.888-3.172 0-1.601-0.616-3.057-1.623-4.147l-63.631-63.63c-1.002-1.098-2.428-1.795-4.017-1.828-1.239 0.088-2.364 0.485-3.324 1.113l-74.213 53.012c-4.616 3.273-10.364 5.231-16.569 5.231-5.498 0-10.636-1.538-15.009-4.206-25.649-15.274-55.434-28.024-86.928-36.638-13.649-3.205-22.071-12.242-23.738-23.482l-15.378-89.751c-0.248-2.68-2.485-4.762-5.209-4.762-0.097 0-0.194 0.003-0.29 0.008l-89.952-0.001c-0.083-0.005-0.18-0.007-0.277-0.007-2.723 0-4.961 2.082-5.207 4.741l-14.996 89.621c-1.943 11.271-10.245 20.184-21.012 22.996-33.517 8.835-62.714 21.226-89.583 37.133-2.45 1.421-7.309 2.779-12.485 2.779-0.187 0-0.373-0.002-0.559-0.005-0.191 0.007-0.448 0.011-0.706 0.011-5.913 0-11.376-1.925-15.797-5.182l-74.898-53.343c-0.915-0.661-2.053-1.068-3.284-1.097-1.587 0.107-2.991 0.785-4.030 1.828l-63.635 63.635c-1.086 1.023-1.763 2.471-1.763 4.077 0 1.214 0.386 2.337 1.043 3.254l52.651 73.857c3.273 4.616 5.231 10.364 5.231 16.569 0 5.498-1.538 10.636-4.206 15.009-15.46 25.652-28.334 55.435-37.007 86.959-3.579 13.404-12.426 21.641-23.449 23.697l-90.512 15.388c-2.68 0.248-4.762 2.485-4.762 5.209 0 0.097 0.003 0.194 0.008 0.29l-0.001 89.952c-0.005 0.083-0.007 0.18-0.007 0.277 0 2.723 2.082 4.961 4.741 5.207l89.255 14.996c11.412 2.073 20.426 10.475 23.358 21.371 8.395 34.281 20.96 64.271 37.438 91.639 1.566 2.594 2.974 7.476 2.974 12.688 0 6.381-2.112 12.269-5.674 17.003l-52.976 74.899c-0.659 0.956-1.052 2.14-1.052 3.415 0 1.489 0.536 2.852 1.425 3.908l63.992 63.625c1.002 1.098 2.428 1.795 4.017 1.828 1.241-0.219 2.345-0.6 3.362-1.128l73.81-52.632c4.672-3.395 10.523-5.43 16.849-5.43 5.383 0 10.422 1.474 14.735 4.041 25.65 15.886 55.482 28.799 87.184 37.088 13.021 3.614 21.103 12.429 23.102 23.368l15.753 90.876c0.39 2.702 2.69 4.754 5.469 4.754 0.006 0 0.012 0 0.018 0h89.965c0.005 0 0.011 0 0.017 0 2.779 0 5.079-2.053 5.465-4.725l14.998-89.264c1.947-11.471 10.407-20.544 21.376-23.362 35.016-9.002 65.572-21.91 93.612-38.604 2.564-1.597 7.602-3.069 12.983-3.069 6.326 0 12.177 2.033 16.935 5.481l73.425 52.971c0.915 0.661 2.053 1.068 3.284 1.097 1.602-0.034 3.028-0.73 4.026-1.824l64.004-63.639c0.882-1.047 1.418-2.41 1.418-3.899 0-1.275-0.393-2.459-1.065-3.436l-52.65-74.219c-3.395-4.672-5.43-10.523-5.43-16.849 0-5.383 1.474-10.422 4.041-14.735 15.629-25.656 28.411-55.481 36.707-87.121 3.361-13.323 12.283-21.632 23.393-23.533l90.135-15.384c2.68-0.248 4.762-2.485 4.762-5.209 0-0.097-0.003-0.194-0.008-0.29l0.001-89.952h-0.366zM512 647.924c-0.054 0-0.118 0-0.183 0-122.096 0-221.074-98.978-221.074-221.074s98.978-221.074 221.074-221.074c122.032 0 220.97 98.874 221.074 220.881 0 0.010 0 0.010 0 0.010 0 122.068-98.852 221.049-220.871 221.257zM512 263.558c-90.105 0.104-163.108 73.172-163.108 163.291 0 90.183 73.108 163.291 163.291 163.291s163.291-73.108 163.291-163.291c0-0.064 0-0.128 0-0.193-0.083-90.090-73.143-163.099-163.255-163.099-0.077 0-0.154 0-0.231 0z" />
<glyph unicode="&#xe922;" glyph-name="tools_map" horiz-adv-x="713" d="M359.517 696.865c-1.197 0.042-2.603 0.066-4.015 0.066-67.937 0-123.010-55.074-123.010-123.010s55.074-123.010 123.010-123.010c67.937 0 123.010 55.074 123.010 123.010 0 0.008 0 0.015 0 0.023 0.010 0.575 0.015 1.254 0.015 1.935 0 66.128-53.045 119.866-118.906 120.985zM359.517 486.106c-0.867-0.031-1.886-0.048-2.909-0.048-48.526 0-87.865 39.338-87.865 87.865s39.338 87.865 87.865 87.865c48.52 0 87.854-39.327 87.865-87.844 0.006-0.395 0.010-0.859 0.010-1.324 0-47.238-37.854-85.635-84.883-86.511zM587.034 809.052c-58.097 60.84-139.844 98.664-230.426 98.664s-172.33-37.825-230.31-98.541c-113.875-117.838-128.131-339.332-30.666-473.544l260.975-389.717 260.684 389.193c97.757 134.677 83.5 356.171-30.258 473.887zM589.652 355.619l-233.045-347.967-233.627 348.52c-88.155 121.788-75.645 321.811 27.349 428.063 51.997 54.487 125.181 88.365 206.278 88.365s154.281-33.878 206.172-88.253c103.1-106.422 115.61-306.445 26.873-428.786z" />
<glyph unicode="&#xe923;" glyph-name="tools_rectangels" horiz-adv-x="1535" d="M1222.896 938.372h-911.452c-172.555-1.604-311.819-141.859-311.819-314.641 0-0.731 0.002-1.461 0.007-2.191l-0.001-389.746c-0.005-0.629-0.007-1.372-0.007-2.116 0-172.782 139.264-313.037 311.668-314.64l911.604-0.001c172.555 1.604 311.82 141.859 311.82 314.641 0 0.744-0.003 1.487-0.008 2.23l0.001 389.744c0.004 0.618 0.007 1.348 0.007 2.079 0 172.782-139.264 313.037-311.668 314.64zM1486.737 231.793c0.005-0.584 0.007-1.274 0.007-1.965 0-146.162-117.862-264.797-263.73-266.046l-911.571-0.001c-146.016 1.396-263.847 120.089-263.847 266.302 0 0.601 0.002 1.201 0.006 1.801v389.766c-0.003 0.497-0.005 1.084-0.005 1.672 0 146.214 117.83 264.906 263.714 266.301l911.585 0.001c145.986-1.25 263.848-119.884 263.848-266.046 0-0.678-0.003-1.355-0.008-2.032l0.001-389.754z" />
<glyph unicode="&#xe924;" glyph-name="tools_shape" horiz-adv-x="1768" d="M1726.956 938.972h-174.092c-23.144-0.050-41.887-18.823-41.887-41.974 0-0.031 0-0.061 0-0.092v-176.050c0-0.026 0-0.057 0-0.087 0-23.151 18.743-41.924 41.882-41.974h34.038c-53.422-294.23-280.463-523.299-569.255-579.058l-4.506 33.57c0 0.026 0 0.057 0 0.087 0 23.151-18.743 41.924-41.882 41.974h-174.097c-22.915-0.098-41.453-18.696-41.453-41.625 0-0.154 0.001-0.307 0.002-0.46v-34.271c-293.485 56.114-520.71 285.367-573.108 575.425l33.38 4.357c22.945 0.246 41.451 18.904 41.451 41.884 0 0.062 0 0.124 0 0.186v176.046c0 0.053 0 0.115 0 0.177 0 22.98-18.506 41.638-41.428 41.884h-174.115c-23.144-0.050-41.887-18.823-41.887-41.974 0-0.031 0-0.061 0-0.092v-176.050c0-0.026 0-0.057 0-0.087 0-23.151 18.743-41.924 41.882-41.974h55.417c28.521-170.417 106.458-319.067 218.369-434.617 60.703-62.371 131.581-114.859 209.939-154.769l-282.14-2.090c-13.146 17.924-34.128 29.43-57.797 29.43-39.471 0-71.469-31.998-71.469-71.469s31.998-71.469 71.469-71.469c23.669 0 44.651 11.506 57.658 29.23l512.38 0.2v-45.988c-0.002-0.143-0.003-0.311-0.003-0.48 0-22.92 18.544-41.508 41.446-41.581h174.099c23.144 0.050 41.887 18.823 41.887 41.974 0 0.031 0 0.061 0 0.092v45.983h512.24c12.769-17.833 33.395-29.336 56.71-29.408 38.716 0.987 69.715 32.597 69.715 71.447s-30.999 70.461-69.612 71.446c-23.419-0.071-44.044-11.573-56.67-29.196l-286.806-0.21c82.894 42.105 153.774 94.722 214.478 157.27 111.728 115.436 189.519 263.959 217.257 429.45l56.508 4.756c23.144 0.050 41.887 18.823 41.887 41.974 0 0.031 0 0.061 0 0.092v176.050c0 0.026 0 0.057 0 0.087 0 23.151-18.743 41.924-41.882 41.974zM83.337 854.85h90.755v-91.933h-90.755v91.933zM929.798-0.687h-91.191v91.933h91.191v-91.933zM1685.069 762.874h-90.755v91.933h90.755v-91.933z" />
<glyph unicode="&#xe925;" glyph-name="undoAsset-2" horiz-adv-x="658" d="M555.449 634.045c-80.276 95.187-199.333 155.47-332.492 156.289l-0.141 124.459c-0.012 13.176-10.696 23.852-23.873 23.852-6.587 0-12.551-2.668-16.871-6.982l-174.433-172.523c-4.727-4.724-7.65-11.252-7.65-18.462s2.924-13.738 7.65-18.462l172.524-174.433c4.319-4.315 10.284-6.984 16.873-6.984 13.066 0 23.681 10.497 23.871 23.518l1.91 116.519c0.168 0 0.366 0 0.565 0 181.599 0 328.813-147.215 328.813-328.813 0-174.406-135.785-317.098-307.405-328.127-27.572-1.489-48.831-22.528-50.612-48.908l-0.009-0.161c-0.106-1.276-0.166-2.761-0.166-4.261 0-30.237 24.512-54.749 54.749-54.749 1.29 0 2.57 0.045 3.839 0.132 121.032 9.125 227.307 66.382 300.76 152.488 64.87 76.612 104.001 175.765 104.001 284.058 0 107.422-38.504 205.851-102.463 282.238z" />
<glyph unicode="&#xe926;" glyph-name="update" horiz-adv-x="1067" d="M1064.533 194.56c-5.242 16.919-20.75 28.996-39.079 28.996-4.642 0-9.103-0.775-13.262-2.202l-53.473-17.408c31.746 65.166 50.317 141.771 50.347 222.71-4.182 275.468-228.462 497.162-504.521 497.162-278.67 0-504.576-225.906-504.576-504.576 0-278.59 225.778-504.447 504.338-504.576 23.223 0 42.039 18.816 42.039 42.027s-18.816 42.027-42.027 42.027c-1.789-0.027-3.901-0.042-6.016-0.042-236.372 0-427.989 191.617-427.989 427.989s191.617 427.989 427.989 427.989c236.372 0 427.989-191.617 427.989-427.989 0 0 0-0.001 0-0.001 0-0.137 0-0.3 0-0.463 0-67.619-15.587-131.598-43.363-188.54l-17.224 59.723c-5.242 16.919-20.75 28.996-39.079 28.996-4.642 0-9.103-0.775-13.262-2.202-16.486-5.564-28.35-21.149-28.35-39.505 0-4.765 0.8-9.344 2.272-13.609l48.552-152.027c5.543-16.785 20.967-28.736 39.221-29.013 4.635 0.092 9.024 0.865 13.148 2.223l149.871 49.403c16.74 5.792 28.547 21.42 28.547 39.806 0 4.684-0.766 9.189-2.18 13.397z" />
<glyph unicode="&#xe927;" glyph-name="Video" horiz-adv-x="1536" d="M1536 752.066v-650.147c0.006-0.331 0.010-0.721 0.010-1.112 0-35.706-28.946-64.652-64.652-64.652-12.219 0-23.646 3.39-33.393 9.28l-265.020 156.044v-44.497c0.005-0.573 0.008-1.25 0.008-1.927 0-131.712-105.921-238.685-237.229-240.387l-698.342-0.002c-131.469 1.703-237.39 108.676-237.39 240.388 0 0.678 0.003 1.355 0.008 2.031l-0.001 539.265c-0.005 0.573-0.008 1.25-0.008 1.927 0 131.712 105.921 238.685 237.229 240.387l698.342 0.002c131.469-1.703 237.39-108.676 237.39-240.388 0-0.678-0.003-1.355-0.008-2.031l0.001-44.394 265.309 156.207c9.524 5.882 21.069 9.368 33.428 9.368 35.526 0 64.326-28.8 64.326-64.326 0-0.364-0.003-0.728-0.009-1.091z" />
<glyph unicode="&#xe928;" glyph-name="Youtube" horiz-adv-x="862" d="M730.274 189.53h-56.589v32.66c-0.003 0.143-0.004 0.311-0.004 0.48 0 14.302 11.594 25.896 25.896 25.896 0.371 0 0.741-0.008 1.108-0.023l2.642 0.002c14.529-0.364 26.253-11.881 26.945-26.291l0.002-32.723zM517.389 259.593c-0.965 0.138-2.079 0.217-3.212 0.217-12.356 0-22.517-9.396-23.728-21.433l-0.008-158.847c1.245-12.112 11.394-21.479 23.73-21.479 1.135 0 2.251 0.079 3.343 0.232 0.301-0.043 0.8-0.059 1.303-0.059 12.082 0 21.977 9.366 22.82 21.233l0.004 158.82c-0.835 11.967-10.747 21.358-22.853 21.358-0.492 0-0.981-0.016-1.466-0.046zM862.316 348.52v-302.026c-3.207-73.429-63.515-131.745-137.443-131.745-0.943 0-1.885 0.009-2.824 0.028l-581.923-0.002c-0.799-0.017-1.74-0.026-2.683-0.026-73.928 0-134.236 58.316-137.433 131.456l-0.010 302.315c3.207 73.429 63.515 131.745 137.443 131.745 0.943 0 1.885-0.009 2.824-0.028l581.923 0.002c0.799 0.017 1.74 0.026 2.683 0.026 73.928 0 134.236-58.316 137.433-131.456zM180.547 13.699v318.033h70.063v47.158l-191.326 0.269v-46.349l59.284-0.162v-319.030h61.979zM396.126 284.439h-61.979v-169.768c0.745-6.183 1.17-13.342 1.17-20.601s-0.425-14.418-1.251-21.455c-1.089-7.937-8.539-14.648-17.556-14.648-8.508 0-15.62 5.974-17.372 13.955l-0.022 212.598h-59.284v-222.154c-0.012-0.453-0.018-0.987-0.018-1.522 0-16.257 6.144-31.078 16.236-42.27 26.898-19.157 78.098 2.939 91.571 30.426v-35.032h48.505v270.363zM587.453 89.906v141.393c0 53.895-40.421 86.232-97.011 42.55v105.095h-59.284v-362.846l48.505 0.701 5.389 22.609c61.979-57.371 102.4-18.136 102.4 50.419zM776.084 108.769l-45.811-0.243v-30.855c-0.092-13.325-10.915-24.091-24.252-24.091 0 0 0 0-0.001 0h-10.779c0 0 0 0-0.001 0-13.338 0-24.16 10.766-24.252 24.082v65.302h105.095v38.346c0 0.118 0 0.257 0 0.396 0 25.291-1.96 50.123-5.735 74.355-5.044 47.994-77.802 56.024-115.528 30.101-11.043-8.462-19.447-19.856-24.099-33.023-5.355-16.444-8.354-34.792-8.354-53.841 0-2.26 0.042-4.511 0.126-6.751l-0.010-83.995c0-140.369 172.463-120.563 153.6 0.135zM544.337 566.47c2.983-7.256 7.587-13.323 13.386-17.96 7.042-4.181 15.387-6.665 24.301-6.804 0.403-0.012 0.831-0.019 1.259-0.019 8.599 0 16.58 2.646 23.173 7.169 6.226 5.986 11.613 13.015 15.809 20.781l0.219-22.839h67.368v281.061h-53.895v-218.92c-0.43-11.729-9.829-21.128-21.518-21.557-0.32-0.015-0.648-0.022-0.978-0.022-11.4 0-20.642 9.242-20.642 20.642 0 0.33 0.008 0.658 0.023 0.984l-0.002 218.874h-56.589v-189.736c0-24.253 2.695-40.421 2.695-48.505 0.489-8.539 2.424-16.5 5.564-23.822zM342.232 725.459c-0.002 0.394-0.002 0.86-0.002 1.326 0 21.89 1.962 43.321 5.719 64.128 4.607 12.39 12.971 24.707 23.832 34.251 12.222 8.763 27.358 13.964 43.709 13.964 0.772 0 1.541-0.012 2.308-0.035 0.72 0.032 1.697 0.049 2.679 0.049 13.723 0 26.674-3.304 38.102-9.159 10.094-5.914 19.025-13.608 26.333-22.665 4.657-8.611 8.364-18.382 10.761-28.657 2.054-11.398 3.137-23.578 3.137-36.011 0-3.82-0.102-7.616-0.304-11.385l0.022-70.615c0.189-4.118 0.297-8.945 0.297-13.798 0-15.406-1.088-30.558-3.19-45.384-1.777-11.241-6.534-22.794-13.451-32.733-5.088-10.092-13.491-18.216-23.765-22.994-10.988-4.906-23.449-7.688-36.559-7.688-0.52 0-1.039 0.004-1.557 0.013-0.447-0.011-1.066-0.016-1.686-0.016-12.914 0-25.275 2.368-36.673 6.692-9.459 3.584-17.784 10.369-23.426 19.056-6.054 9.235-10.694 19.76-13.446 31.026-2.035 13.445-3.116 28.166-3.116 43.138 0 4.576 0.101 9.129 0.301 13.656l-0.023 73.838zM393.432 613.736c0-0.005 0-0.012 0-0.019 0-15.293 11.84-27.821 26.853-28.917 15.033 0.116 27.097 12.254 27.097 27.21 0 0.607-0.020 1.209-0.059 1.807l0.004 149.638c0.034 0.508 0.053 1.101 0.053 1.699 0 14.955-12.062 27.093-26.989 27.216-15.117-1.102-26.954-13.625-26.959-28.914v-149.72zM210.189 538.121h61.979v215.741l75.453 184.778h-70.063l-40.421-137.27-40.421 137.647h-67.368l80.842-185.263v-215.579z" />
</font>
</defs>
</svg>
