<svg id="Layer_1" data-name="Layer 1" xmlns="http://www.w3.org/2000/svg" viewBox="0 0 151.86 97.38"><defs><style>.cls-1{fill:#fff;fill-rule:evenodd;}</style></defs><title>Untitled-1</title><g id="icon.psd"><g id="Forma_1" data-name="Forma 1"><path class="cls-1" d="M74,27.69V3.25A3.24,3.24,0,0,0,72.3.39,3.21,3.21,0,0,0,69,.56L1.45,46a3.27,3.27,0,0,0,0,5.43L68.92,96.82A3.25,3.25,0,0,0,74,94.12V67.86a242.89,242.89,0,0,1,26.72,1.42c35.11,4.18,44.51,25.25,44.88,26.13a3.24,3.24,0,0,0,3,2,4.5,4.5,0,0,0,.63,0,3.27,3.27,0,0,0,2.61-3.2C151.86,41,88.7,29.6,74,27.69Z"/></g></g></svg>