<?xml version="1.0" encoding="utf-8"?>
<!-- Generator: Adobe Illustrator 21.1.0, SVG Export Plug-In . SVG Version: 6.00 Build 0)  -->
<svg version="1.1" xmlns="http://www.w3.org/2000/svg" xmlns:xlink="http://www.w3.org/1999/xlink" x="0px" y="0px"
	 viewBox="0 0 96 80" style="enable-background:new 0 0 96 80;" xml:space="preserve">
<style type="text/css">
	.st0{fill:#FFFFFF;}
	.st1{fill-rule:evenodd;clip-rule:evenodd;fill:#727270;}
	.st2{fill-rule:evenodd;clip-rule:evenodd;fill:#67CDFD;}
	.st3{fill-rule:evenodd;clip-rule:evenodd;fill:#FEFEFE;}
	.st4{fill-rule:evenodd;clip-rule:evenodd;fill:#335AA7;}
</style>
<g id="_x32_0">
	<rect x="-1440" y="-99" class="st0" width="800" height="797.7"/>
	<path class="st1" d="M-945,286.8l26.6,26.5c0.3,0.3,0.3,0.8,0,1.2l-26.6,26.5c-0.3,0.2-0.7,0.2-1.1,0l-3.4-3.5l23.2-23.1
		c0.2-0.3,0.2-0.8,0-1.2l-23.2-23.1l3.4-3.5C-945.7,286.5-945.3,286.5-945,286.8L-945,286.8z"/>
	<path class="st1" d="M-837.6,286.8l26.5,26.5c0.3,0.3,0.3,0.8,0,1.1l-26.5,26.6c-0.3,0.2-0.7,0.2-1.1,0l-5.9-5.9l20.8-20.8
		c0.2-0.2,0.2-0.7,0-1.1l-20.8-20.7l5.9-5.9C-838.3,286.5-837.9,286.5-837.6,286.8L-837.6,286.8z"/>
	<path class="st1" d="M-1373.7,439.1h33.6c0.3,0,0.7-0.3,0.7-0.8v-33.6c0-0.3-0.3-0.6-0.7-0.6h-7.4v21.2l-24.6-24.6l-5.6,5.7
		l24.5,24.6h-21.3v7.3C-1374.3,438.8-1374.1,439.1-1373.7,439.1L-1373.7,439.1z"/>
	<polygon class="st1" points="-1138.1,400.8 -1149.4,400.8 -1134.6,415.6 -1173.6,415.6 -1173.6,424.4 -1134.6,424.4 -1149.4,439.1 
		-1138.1,439.1 -1119,420 	"/>
	<polygon class="st1" points="-694.1,525.9 -722.3,501.1 -722.3,514 -748.9,514 -748.9,538 -722.3,538 -722.3,550.8 	"/>
	<polygon class="st1" points="-1233.3,632 -1271.3,659.3 -1271.3,604.7 	"/>
	<polygon class="st1" points="-1355.8,550.6 -1362.4,544 -1349,530.6 -1385.8,530.6 -1385.8,521.3 -1349,521.3 -1362.4,508 
		-1355.8,501.4 -1331.2,525.9 	"/>
	<path class="st1" d="M-917.8,506.5v19.2h11l-15,27.4c-0.2,0.3-0.5,0.3-0.7,0l-15-27.4h10.7h0.9v-11.2c0-4.3-3.6-7.9-7.9-7.9
		c-11.9,0-11.4,0-23.2,0c-2.2,0-4.1-1.7-4.1-4c0-2.2,1.8-4,4.1-4c14.5,0,16.6,0,31.1,0C-921.4,498.7-917.8,502.1-917.8,506.5
		L-917.8,506.5z"/>
	<polygon class="st1" points="-914.7,428.1 -914.7,416.9 -929.5,431.7 -929.5,392.6 -938.2,392.6 -938.2,431.7 -952.9,416.9 
		-952.9,428.1 -933.9,447.3 	"/>
	<path class="st1" d="M-953.2,652.2L-953.2,652.2h38.7c1.6,0,2.8,1.2,2.8,2.7v1.5c0,1.6-1.2,2.9-2.8,2.9h-38.7
		c-1.5,0-2.8-1.3-2.8-2.9v-1.5C-956,653.4-954.7,652.2-953.2,652.2L-953.2,652.2z"/>
	<path class="st2" d="M-917.6,630.8l-15.8,15.9c-0.2,0.2-0.5,0.2-0.7,0l-16-15.9c-0.2-0.2-0.2-0.5,0-0.7l2.1-2.1l12.6,12.6v-34.2
		c0-0.9,0.7-1.7,1.7-1.7c1,0,1.8,0.8,1.8,1.7v34l12.2-12.3l2.1,2.1C-917.4,630.3-917.4,630.6-917.6,630.8L-917.6,630.8z"/>
	<path class="st1" d="M-1038,647l24.6-24.6c1.1-1.1,1.1-2.7,0-3.8l-2.2-2.3l-22.3,22.3c-1.1,1.1-2.8,1.1-3.9,0l-22.3-22.3l-2.3,2.3
		c-1.1,1.1-1.1,2.7,0,3.8l24.6,24.6C-1040.8,648-1039.1,648-1038,647L-1038,647z"/>
	<path class="st1" d="M-1361.8,658.3c0.1,0.1,0.2,0.2,0.5,0.2c0.2,0.2,0.3,0.2,0.5,0.3c0.2,0.1,0.4,0.1,0.6,0.2
		c0.2,0.1,0.4,0.1,0.6,0.2c0.7,0.2,1.6,0.2,2.3,0c0.2-0.1,0.3-0.1,0.6-0.2c0.2-0.1,0.3-0.1,0.6-0.2c0.2-0.1,0.4-0.2,0.6-0.3
		c0.2-0.1,0.3-0.2,0.4-0.2c0.3-0.2,0.7-0.5,0.9-0.7l17.8-17.8c2.3-2.3,2.3-6.1,0-8.4c-2.3-2.3-6.1-2.3-8.4,0l-7.5,7.5v-28.3
		c0-3.3-2.7-6-6-6s-6,2.6-6,6v28.3l-7.5-7.5c-2.3-2.3-6.1-2.3-8.4,0c-1.2,1.2-1.8,2.6-1.8,4.3c0,1.5,0.7,3.1,1.8,4.1l17.8,17.8
		C-1362.5,657.8-1362.2,658.2-1361.8,658.3L-1361.8,658.3z"/>
	<polygon class="st1" points="-1127.1,623.8 -1127.1,635 -1141.9,620.3 -1141.9,659.3 -1150.6,659.3 -1150.6,620.3 -1165.4,635 
		-1165.4,623.8 -1146.3,604.7 	"/>
	<path class="st1" d="M-802,427.3l-22.2-22.2c-2-1.9-5-1.9-6.9,0l-22.2,22.2c-2,2-2.4,4.8-0.4,6.7l0.8,0.9c1.7,1.6,3.9,1.9,5.4,0.2
		c5.5-5.5,11-10.8,16.5-16.3c1.8-2,4.9-2,6.9,0c5.5,5.5,10.9,10.8,16.3,16.3c1.7,1.7,3.7,1.4,5.5-0.2l0.7-0.9
		C-799.6,432.1-800.1,429.3-802,427.3L-802,427.3z"/>
	<path class="st2" d="M-830.1,621.3L-830.1,621.3c0,1.3,1.1,2.4,2.5,2.4c1.2,0,2.4-1.1,2.4-2.4c0-1.4-1.2-2.4-2.4-2.4
		C-829,618.9-830.1,619.9-830.1,621.3L-830.1,621.3z"/>
	<path class="st2" d="M-822.9,621.3L-822.9,621.3c0,1.3,1.1,2.4,2.4,2.4c1.4,0,2.5-1.1,2.5-2.4c0-1.4-1.1-2.4-2.5-2.4
		C-821.8,618.9-822.9,619.9-822.9,621.3L-822.9,621.3z"/>
	<path class="st2" d="M-815.6,621.3L-815.6,621.3c0,1.3,1.1,2.4,2.4,2.4c1.4,0,2.4-1.1,2.4-2.4c0-1.4-1-2.4-2.4-2.4
		C-814.5,618.9-815.6,619.9-815.6,621.3L-815.6,621.3z"/>
	<path class="st2" d="M-844.5,621.3L-844.5,621.3c0,1.3,1.1,2.4,2.4,2.4c1.3,0,2.4-1.1,2.4-2.4c0-1.4-1.1-2.4-2.4-2.4
		C-843.5,618.9-844.5,619.9-844.5,621.3L-844.5,621.3z"/>
	<path class="st2" d="M-830.1,607.1L-830.1,607.1c0,1.3,1.1,2.4,2.5,2.4c1.2,0,2.4-1.1,2.4-2.4c0-1.4-1.2-2.4-2.4-2.4
		C-829,604.7-830.1,605.7-830.1,607.1L-830.1,607.1z"/>
	<path class="st2" d="M-837.3,614.2L-837.3,614.2c0,1.2,1.1,2.4,2.4,2.4c1.3,0,2.4-1.2,2.4-2.4c0-1.3-1.1-2.5-2.4-2.5
		C-836.2,611.7-837.3,612.8-837.3,614.2L-837.3,614.2z"/>
	<path class="st2" d="M-822.9,614.2L-822.9,614.2c0,1.2,1.1,2.4,2.4,2.4c1.4,0,2.5-1.2,2.5-2.4c0-1.3-1.1-2.5-2.5-2.5
		C-821.8,611.7-822.9,612.8-822.9,614.2L-822.9,614.2z"/>
	<path class="st2" d="M-830.1,614.2L-830.1,614.2c0,1.2,1.1,2.4,2.5,2.4c1.2,0,2.4-1.2,2.4-2.4c0-1.3-1.2-2.5-2.4-2.5
		C-829,611.7-830.1,612.8-830.1,614.2L-830.1,614.2z"/>
	<path class="st1" d="M-830.1,656.9L-830.1,656.9c0,1.3,1.1,2.4,2.5,2.4c1.2,0,2.4-1.1,2.4-2.4c0-1.4-1.2-2.4-2.4-2.4
		C-829,654.5-830.1,655.5-830.1,656.9L-830.1,656.9z"/>
	<path class="st1" d="M-830.1,628.4L-830.1,628.4c0,1.4,1.1,2.4,2.5,2.4c1.2,0,2.4-1,2.4-2.4c0-1.3-1.2-2.5-2.4-2.5
		C-829,625.9-830.1,627.1-830.1,628.4L-830.1,628.4z"/>
	<path class="st1" d="M-830.1,635.5L-830.1,635.5c0,1.3,1.1,2.5,2.5,2.5c1.2,0,2.4-1.2,2.4-2.5c0-1.4-1.2-2.4-2.4-2.4
		C-829,633.1-830.1,634.1-830.1,635.5L-830.1,635.5z"/>
	<path class="st1" d="M-830.1,642.6L-830.1,642.6c0,1.4,1.1,2.5,2.5,2.5c1.2,0,2.4-1.1,2.4-2.5c0-1.3-1.2-2.4-2.4-2.4
		C-829,640.2-830.1,641.3-830.1,642.6L-830.1,642.6z"/>
	<path class="st1" d="M-830.1,649.7L-830.1,649.7c0,1.3,1.1,2.5,2.5,2.5c1.2,0,2.4-1.2,2.4-2.5c0-1.2-1.2-2.4-2.4-2.4
		C-829,647.3-830.1,648.5-830.1,649.7L-830.1,649.7z"/>
	<path class="st2" d="M-837.3,621.3c0,1.3,1.1,2.4,2.4,2.4c1.3,0,2.4-1.1,2.4-2.4c0-1.4-1.1-2.4-2.4-2.4
		C-836.2,618.9-837.3,619.9-837.3,621.3L-837.3,621.3z"/>
	<path class="st1" d="M-821.2,546.9l20.8-20.4c0.2-0.2,0.2-0.7,0-0.9l-20.8-20.5c-0.2-0.2-0.4-0.2-0.7,0l-2.6,2.6l16.1,16.1h-44.3
		c-1.2,0-2.4,1.1-2.4,2.4c0,1.3,1.2,2.2,2.4,2.2h43.9l-15.7,16l2.6,2.6C-821.6,547.1-821.4,547.1-821.2,546.9L-821.2,546.9z"/>
	<path class="st1" d="M-1135.1,498.9l-26.6,26.5c-0.2,0.3-0.2,0.8,0,1.1l26.6,26.5c0.2,0.3,0.7,0.3,1,0l3.5-3.4l-23.1-23.2
		c-0.4-0.2-0.4-0.7,0-1.1l23.1-23.1l-3.5-3.5C-1134.3,498.5-1134.8,498.5-1135.1,498.9L-1135.1,498.9z"/>
	<polygon class="st1" points="-748.9,611.5 -748.9,611.5 -721.4,638.8 -694.1,611.5 -700,605.7 -721.4,627.1 -743,605.7 	"/>
	<polygon class="st2" points="-748.9,631 -721.4,658.3 -694.1,631 -700,625.2 -721.4,646.7 -743,625.2 	"/>
	<path class="st1" d="M-1038.3,398.2l20.8,21h-14.7c-1.6,12.9-12.7,23.1-26,23.1c-0.7,0-1.3-0.1-1.8-0.1c7.9-3.3,13.4-11,13.4-20.1
		c0-1-0.1-2-0.2-2.9h-15.7l21-21C-1040.7,397.4-1039.3,397.4-1038.3,398.2L-1038.3,398.2z"/>
	<path class="st1" d="M-1032.4,501.1v27.4h10.7l-18.3,24.8l-18.4-24.8h10.9v-27.4c0-1.3,1-2.5,2.3-2.5h10.3
		C-1033.6,498.7-1032.4,499.8-1032.4,501.1L-1032.4,501.1z"/>
	<path class="st1" d="M-1226.6,518.6l-22.3,22.2c-1.8,2-5,2-6.9,0l-22.1-22.2c-2.1-2-2.6-4.6-0.5-6.6l0.8-0.8
		c1.8-1.7,3.8-2.1,5.5-0.3c5.4,5.5,10.8,11,16.3,16.5c1.9,1.8,5,1.8,6.9,0c5.5-5.5,11-11,16.5-16.5c1.5-1.7,3.6-1.4,5.3,0.3l0.8,0.8
		C-1224.3,514-1224.8,516.6-1226.6,518.6L-1226.6,518.6z"/>
	<path class="st1" d="M-908.9,102l-24.5,24.4c-0.2,0.3-0.7,0.3-0.9,0l-24.4-24.4c-0.4-0.3-0.4-0.7,0-0.9l5.3-5.5l15.4,15.5V78.4
		c0-0.7,0.5-1.3,1.3-1.3h5.7c0.7,0,1.3,0.6,1.3,1.3v32.7l15.4-15.5l5.4,5.5C-908.6,101.4-908.6,101.7-908.9,102L-908.9,102z"/>
	<polygon class="st1" points="-952.8,180.6 -933.8,207.9 -952.8,207.9 -933.8,235.2 -914.9,207.9 -933.8,207.9 -914.9,180.6 	"/>
	<path class="st1" d="M-818.3,209.2v-22.1c0-3.3-3.3-6.5-6.4-6.5l0,0h-16.9c3.2,0,6.4,3.2,6.4,6.5v22.1h-4.5l13,26l13.1-26H-818.3z"
		/>
	<polygon class="st1" points="-726.6,220.6 -734.6,217.6 -721.5,235.2 -708.4,217.6 -716.4,220.6 -721.5,180.6 	"/>
	<g>
		<polygon class="st1" points="-1358.7,337.9 -1376.7,324.3 -1376.7,312.5 -1358.7,326.1 -1340.6,312.5 -1340.2,312.2 
			-1340.2,324.1 -1340.6,324.3 		"/>
		<polygon class="st2" points="-1367.8,315.5 -1367.8,290 -1349.1,290 -1349.1,315.3 -1358.7,322.4 		"/>
	</g>
	<g>
		<polygon class="st1" points="-1235.1,320.8 -1252.3,338.1 -1269.5,320.8 -1262.2,320.8 -1262.2,307.9 -1242.5,307.9 
			-1242.5,320.8 		"/>
		<rect x="-1262.2" y="298.1" class="st2" width="19.8" height="6.3"/>
		<rect x="-1262.2" y="289.8" class="st2" width="19.8" height="4.7"/>
	</g>
	<g>
		<polygon class="st1" points="-1138.5,294.4 -1118.8,314 -1138.4,333.5 -1138.4,325.2 -1153.1,325.2 -1153.1,302.7 -1138.4,302.7 
					"/>
		<polygon class="st2" points="-1157.1,325.2 -1164.3,325.2 -1164.3,302.7 -1157.2,302.7 		"/>
		<rect x="-1173.7" y="302.8" class="st2" width="5.4" height="22.4"/>
	</g>
	<g>
		<polygon class="st1" points="-1067.4,207.9 -1049.2,180.6 -1036,180.6 -1054.1,207.9 -1036,235.2 -1049.2,235.2 		"/>
		<polygon class="st2" points="-1025.9,180.6 -1012.6,180.6 -1030.8,207.9 -1012.6,235.2 -1025.9,235.2 -1044.1,207.9 		"/>
	</g>
	<path class="st1" d="M-712.1,100.6v22.2c0,3.2-3.3,6.5-6.4,6.5l0,0h-16.9c3.2,0,6.4-3.3,6.4-6.5l0,0v-22.2h-4.5l13-26l13.1,26
		H-712.1z"/>
	<polygon class="st1" points="-1342.8,208.2 -1359.4,230.3 -1373.9,230.3 -1357.3,208.2 -1373.9,186 -1374.3,185.5 -1359.7,185.5 
		-1359.4,186 	"/>
	<polygon class="st1" points="-847.6,102.1 -826.5,130.2 -808.2,130.2 -829.1,102.1 -808.2,74.2 -807.7,73.6 -826.1,73.6 
		-826.5,74.2 	"/>
	<path class="st1" d="M-1173.1,206.1l3.2-3.4l3.4-3.2c0.7-0.8,2.1-0.8,2.9,0l3.2,3.2l3.4,3.4c0.8,0.7,0.6,1.4-0.7,1.4h-3.9
		c0,8.5,6.9,15.4,15.4,15.4c4.3,0,8.2-1.7,10.9-4.5l5.1,5.1c-4.1,4.1-9.8,6.6-16,6.6c-12.4,0-22.6-10.2-22.6-22.7h-3.8
		C-1173.7,207.5-1173.9,206.9-1173.1,206.1L-1173.1,206.1z"/>
	<path class="st2" d="M-1135.6,209.8c-0.8-0.8-0.6-1.5,0.6-1.5h4c0-8.5-6.9-15.4-15.5-15.4c-4.2,0-8.1,1.7-10.8,4.5l-5.2-5.2
		c4.1-4.1,9.8-6.6,16.1-6.6c12.4,0,22.6,10.2,22.6,22.7h3.8c1.2,0,1.4,0.7,0.6,1.5l-3.3,3.3l-3.3,3.3c-0.8,0.8-2.1,0.8-2.9,0
		l-3.3-3.3L-1135.6,209.8z"/>
	<polygon class="st1" points="-1267.8,185.6 -1252.3,208 -1267.8,208 -1252.3,230.2 -1236.9,208 -1252.3,208 -1236.9,185.6 	"/>
	<g>
		<polygon class="st1" points="-1012.6,102.1 -1028.2,122.7 -1041.7,122.7 -1026.1,102.1 -1041.7,81.5 -1042,81.1 -1028.5,81.1 
			-1028.2,81.5 		"/>
		<polygon class="st2" points="-1038.3,112.6 -1067.4,112.6 -1067.4,91.2 -1038.6,91.2 -1030.4,102.1 		"/>
	</g>
	<g>
		<polygon class="st1" points="-1274.5,-4.1 -1261,3.7 -1247.6,11.5 -1247.6,6 -1251.4,3.7 -1264.9,-4.1 -1251.4,-11.9 
			-1247.6,-14.2 -1247.6,-19.7 -1261,-11.9 		"/>
		<polygon class="st2" points="-1257.1,-4.1 -1243.6,3.7 -1230.1,11.5 -1230.1,6 -1234.1,3.7 -1247.6,-4.1 -1234.1,-11.9 
			-1230.1,-14.2 -1230.1,-19.7 -1243.6,-11.9 		"/>
	</g>
	<polygon class="st2" points="-827.7,-31.4 -818.1,-14.9 -808.5,1.8 -815.3,1.8 -818.1,-3 -827.7,-19.7 -837.3,-3 -840,1.8 
		-846.9,1.8 -837.3,-14.9 	"/>
	<polygon class="st1" points="-827.7,-10 -818.1,6.6 -808.5,23.3 -815.3,23.3 -818.1,18.5 -827.7,1.8 -837.3,18.5 -840,23.3 
		-846.9,23.3 -837.3,6.6 	"/>
	<polygon class="st1" points="-721.5,23.3 -711.8,6.6 -702.3,-10 -709.2,-10 -711.8,-5.2 -721.5,11.4 -731.1,-5.2 -733.9,-10 
		-740.7,-10 -731.1,6.6 	"/>
	<polygon class="st2" points="-721.5,1.8 -711.8,-14.9 -702.3,-31.4 -709.2,-31.4 -711.8,-26.6 -721.5,-10.1 -731.1,-26.6 
		-733.9,-31.4 -740.7,-31.4 -731.1,-14.9 	"/>
	<polygon class="st1" points="-1337.8,120 -1342.5,89 -1349.4,97.3 -1366.4,83 -1379.2,98.3 -1362.3,112.5 -1369.1,120.8 	"/>
	<polygon class="st1" points="-1272.8,119.8 -1268.1,89.2 -1261.3,97.3 -1258.6,95.1 -1258.6,93 -1257.3,94 -1244.6,83.3 
		-1231.9,98.4 -1248.6,112.4 -1241.8,120.6 	"/>
	<polygon class="st1" points="-1129.3,83.8 -1129.6,111.8 -1136.7,105.4 -1150,120.1 -1163.3,108.1 -1150,93.4 -1157.2,87 	"/>
	<polygon class="st1" points="-1357.1,3 -1357.1,-11.2 -1357.1,-16.9 -1352,-16.9 -1358.3,-27.2 -1364.9,-16.9 -1359.6,-16.9 
		-1359.6,-11.2 -1359.6,3 -1359.6,8.8 -1364.9,8.8 -1358.3,19.1 -1352,8.8 -1357.1,8.8 	"/>
	<g>
		<path class="st1" d="M-1040,286.6L-1040,286.6c7.5,0,14.4,3.1,19.3,8c5,5,8,11.7,8,19.3c0,7.5-3.1,14.4-8,19.3
			c-5,4.9-11.8,8-19.3,8c-7.5,0-14.4-3.1-19.3-8c-5-5-8-11.8-8-19.3c0-7.6,3.1-14.4,8-19.3C-1054.4,289.6-1047.5,286.6-1040,286.6
			L-1040,286.6z"/>
		<path class="st3" d="M-1024.8,298.7L-1024.8,298.7c-3.9-3.9-9.3-6.3-15.2-6.3c-6,0-11.2,2.4-15.2,6.3c-3.8,3.9-6.3,9.3-6.3,15.2
			c0,5.9,2.5,11.2,6.3,15.2c4,3.9,9.3,6.3,15.2,6.3c6,0,11.3-2.4,15.2-6.3c3.9-4,6.3-9.3,6.3-15.2
			C-1018.5,308-1020.9,302.6-1024.8,298.7L-1024.8,298.7z"/>
		<path class="st2" d="M-1043.1,302.4l11.2,11.3c0.2,0.2,0.2,0.3,0,0.5l-11.2,11.2c-0.2,0.1-0.4,0.1-0.5,0l-2.5-2.5l8.8-8.8
			c0.2-0.2,0.2-0.3,0-0.5l-8.8-8.8l2.5-2.6C-1043.6,302.3-1043.3,302.3-1043.1,302.4L-1043.1,302.4z"/>
	</g>
	<g>
		<path class="st2" d="M-1252.3,392.6L-1252.3,392.6c7.5,0,14.4,3,19.3,8c4.9,5,8,11.7,8,19.3c0,7.5-3.1,14.3-8,19.3
			c-5,5-11.8,8.1-19.3,8.1c-7.5,0-14.4-3.1-19.3-8.1c-5-5-8-11.7-8-19.3c0-7.6,3.1-14.4,8-19.3
			C-1266.7,395.6-1259.8,392.6-1252.3,392.6L-1252.3,392.6z"/>
		<path class="st3" d="M-1237.2,404.7c-3.8-4-9.2-6.3-15.1-6.3c-6,0-11.3,2.3-15.1,6.3c-4,3.9-6.4,9.3-6.4,15.2
			c0,5.9,2.4,11.2,6.4,15.1c3.8,4,9.2,6.4,15.1,6.4c6,0,11.3-2.4,15.1-6.4c3.9-3.9,6.4-9.3,6.4-15.1
			C-1230.8,414-1233.3,408.6-1237.2,404.7L-1237.2,404.7z"/>
		<path class="st1" d="M-1243.7,418.6L-1243.7,418.6c1.2,0.7,1.2,1.9,0,2.6l-13.3,7.2v-17L-1243.7,418.6z"/>
	</g>
	
		<image style="overflow:visible;" width="144" height="114" xlink:href="Screen Shot 2017-09-27 at 16.11.45.png"  transform="matrix(2.0439 0 0 2.0439 -362 57)">
	</image>
	<path class="st4" d="M62.3,27.9h-16c-0.9,0-1.6-0.7-1.6-1.6v-6.7c0-1.2-1.3-2-2.4-1.4l-25,13.7c-0.3,0.2-0.3,0.5,0,0.7l25,13.7
		c1.1,0.6,2.4-0.2,2.4-1.4v-8v-0.9h17.5c0.9,0,1.6,0.7,1.6,1.6v23.9c0,0.9,0.7,1.6,1.6,1.6l4.8,0c0.9,0,1.6-0.7,1.6-1.6V37.4
		C71.9,32.2,67.6,27.9,62.3,27.9z"/>
</g>
<g id="Layer_1">
</g>
</svg>
