<svg xmlns="http://www.w3.org/2000/svg" viewBox="0 0 323.52 231.29"><defs><style>.cls-1{fill:#f2f2f2;}</style></defs><title>Asset 6</title><g id="Layer_2" data-name="Layer 2"><g id="Layer_1-2" data-name="Layer 1"><path class="cls-1" d="M312.45,45.9a23.83,23.83,0,0,0-23-1.59L250.75,62.19a21.45,21.45,0,0,0-21.07-17.61H206.54V19.72A19.75,19.75,0,0,0,186.81,0H8.58a8.58,8.58,0,1,0,0,17.15H186.81a2.54,2.54,0,0,1,2.57,2.57V44.58h-168A21.44,21.44,0,0,0,0,66V207.4a21.44,21.44,0,0,0,21.42,21.41H229.68a21.44,21.44,0,0,0,21.07-17.61l38.72,17.88a24,24,0,0,0,34-21.76V66.08A23.8,23.8,0,0,0,312.45,45.9Zm-6.08,161.42a6.66,6.66,0,0,1-3.16,5.74,6.57,6.57,0,0,1-6.54.45l-45.58-21V80.91l45.59-21a6.58,6.58,0,0,1,6.54.47,6.66,6.66,0,0,1,3.15,5.74ZM234,66V207.4a4.29,4.29,0,0,1-4.29,4.28H21.42a4.28,4.28,0,0,1-4.27-4.28V66a4.29,4.29,0,0,1,4.27-4.29H229.68A4.3,4.3,0,0,1,234,66Z"/></g></g></svg>