<svg xmlns="http://www.w3.org/2000/svg" viewBox="0 0 211.2 263.76"><defs><style>.cls-1{fill:#f2f2f2;}</style></defs><title>Asset 9</title><g id="Layer_2" data-name="Layer 2"><g id="Layer_1-2" data-name="Layer 1"><path class="cls-1" d="M143.46,46.13H20.85A20.86,20.86,0,0,0,0,67V242.91a20.86,20.86,0,0,0,20.85,20.85H143.46a20.86,20.86,0,0,0,20.85-20.85V67a20.92,20.92,0,0,0-20.85-20.85Zm6.22,196.72a6.27,6.27,0,0,1-6.27,6.27H20.8a6.27,6.27,0,0,1-6.27-6.27V67a6.27,6.27,0,0,1,6.27-6.27H143.41A6.27,6.27,0,0,1,149.68,67Z"/><path class="cls-1" d="M190.35,0H67.73A20.85,20.85,0,0,0,46.89,20.85a7.29,7.29,0,0,0,14.58,0,6.26,6.26,0,0,1,6.26-6.26H190.35a6.26,6.26,0,0,1,6.26,6.26V196.78a6.27,6.27,0,0,1-6.26,6.26,7.3,7.3,0,0,0,0,14.59,20.87,20.87,0,0,0,20.85-20.85V20.85A20.86,20.86,0,0,0,190.35,0Z"/></g></g></svg>