<svg id="Layer_1" data-name="Layer 1" xmlns="http://www.w3.org/2000/svg" viewBox="0 0 222 222"><defs><style>.cls-1{fill:#fff;}.cls-2{fill:#ed2524;}</style></defs><title>Untitled-1</title><circle class="cls-1" cx="111" cy="111" r="111"/><rect class="cls-2" x="64.94" y="133.54" width="69.1" height="7.68"/><rect class="cls-2" x="64.94" y="116.51" width="69.1" height="7.67"/><rect class="cls-2" x="64.94" y="99.48" width="69.1" height="7.67"/><rect class="cls-2" x="64.94" y="151.55" width="69.1" height="7.68"/><path class="cls-2" d="M111,0A111,111,0,1,0,222,111,111,111,0,0,0,111,0Zm38.22,156.85v13.49a13.48,13.48,0,0,1-13.48,13.48H63.24a13.48,13.48,0,0,1-13.49-13.48V70.87A13.49,13.49,0,0,1,63.24,57.38h72.49a13.49,13.49,0,0,1,13.49,13.49v86Zm17.27-17.27v13.48A13.49,13.49,0,0,1,156.9,166V70.87A21.2,21.2,0,0,0,135.74,49.7H67.6a13.49,13.49,0,0,1,12.91-9.6H153a13.48,13.48,0,0,1,13.48,13.49Zm0,0"/><rect class="cls-2" x="64.94" y="82.45" width="69.1" height="7.68"/></svg>