<svg id="Layer_1" data-name="Layer 1" xmlns="http://www.w3.org/2000/svg" viewBox="0 0 222 222"><defs><style>.cls-1{fill:#013370;}.cls-2{fill:#fff;}</style></defs><title>Untitled-1</title><circle class="cls-1" cx="111" cy="111" r="111"/><path class="cls-2" d="M164.48,57.52a27.11,27.11,0,0,0-38.36,0L55.8,127.82a3.46,3.46,0,0,0-1,2L49.6,168.42a3.5,3.5,0,0,0,1,3,3.61,3.61,0,0,0,2.49,1.05,2.48,2.48,0,0,0,.47,0l23.25-3.14a3.54,3.54,0,1,0-.94-7l-18.64,2.52,3.64-26.92,28.32,28.33a3.57,3.57,0,0,0,2.49,1.05,3.48,3.48,0,0,0,2.49-1.05l70.32-70.29a27.09,27.09,0,0,0,0-38.36Zm-37,8.64L139.29,78,75.12,142.14l-11.8-11.81ZM91.7,158.68,80.15,147.14,144.32,83l11.54,11.55Zm69.08-69.22L132.54,61.21a20.06,20.06,0,0,1,28.24,28.25Zm0,0"/></svg>