<svg xmlns="http://www.w3.org/2000/svg" viewBox="0 0 248.18 203.5"><defs><style>.cls-1{fill:#f2f2f2;}</style></defs><title>Asset 8</title><g id="Layer_2" data-name="Layer 2"><g id="Layer_1-2" data-name="Layer 1"><path class="cls-1" d="M241.18,0H7A7.13,7.13,0,0,0,0,7.22V196.28a7.13,7.13,0,0,0,7,7.22H241.18a7.12,7.12,0,0,0,7-7.22V7.22A7.12,7.12,0,0,0,241.18,0ZM14.05,189.06V14.41h220.1V189.06Z"/><path class="cls-1" d="M69.74,101c14.4,0,26.12-12,26.12-26.85S84.14,47.27,69.74,47.27s-26.13,12-26.13,26.84S55.33,101,69.74,101ZM57.66,74.11A12.09,12.09,0,1,1,69.74,86.52,12.27,12.27,0,0,1,57.66,74.11Z"/><path class="cls-1" d="M174.8,74.91a6.91,6.91,0,0,0-9.89.48L126,119.23,108.23,101a6.85,6.85,0,0,0-9.61-.33L27.46,165.07a7.35,7.35,0,0,0-.63,10.16,6.88,6.88,0,0,0,5.29,2.48,7,7,0,0,0,4.63-1.79L103,116l41.19,42.33a6.89,6.89,0,0,0,9.92,0,7.36,7.36,0,0,0,0-10.19L135.9,129.45l34.63-39,45,42.38a6.8,6.8,0,0,0,5,1.9,7,7,0,0,0,4.89-2.35A7.37,7.37,0,0,0,225,122.2Z"/></g></g></svg>