<svg id="Layer_1" data-name="Layer 1" xmlns="http://www.w3.org/2000/svg" viewBox="0 0 222 222"><defs><style>.cls-1{fill:#00964f;}.cls-2{fill:#fff;}</style></defs><title>Untitled-1</title><circle class="cls-1" cx="111" cy="111" r="111"/><path class="cls-2" d="M111,46.06A47.87,47.87,0,0,0,63.18,93.87a46.77,46.77,0,0,0,4.18,19.53c12,26.15,34.88,53.77,41.62,61.61a2.65,2.65,0,0,0,4,0c6.74-7.84,29.67-35.45,41.62-61.61a46.62,46.62,0,0,0,4.19-19.53A47.88,47.88,0,0,0,111,46.06Zm0,72.65a24.84,24.84,0,1,1,24.84-24.84A24.86,24.86,0,0,1,111,118.71Zm0,0"/></svg>