<?xml version="1.0" encoding="utf-8"?>
<!-- Generator: Adobe Illustrator 21.1.0, SVG Export Plug-In . SVG Version: 6.00 Build 0)  -->
<svg version="1.1" id="Layer_1" xmlns="http://www.w3.org/2000/svg" xmlns:xlink="http://www.w3.org/1999/xlink" x="0px" y="0px"
	 viewBox="0 0 107.9 102" style="enable-background:new 0 0 107.9 102;" xml:space="preserve">
<style type="text/css">
	.st0{fill:#FFFFFF;}
</style>
<g>
	<path class="st0" d="M94,6.2H14c-5.3,0-9.6,4.3-9.6,9.6c0,5.3,4.3,9.6,9.6,9.6h80c5.3,0,9.6-4.3,9.6-9.6
		C103.6,10.5,99.3,6.2,94,6.2L94,6.2z M94,6.2"/>
	<path class="st0" d="M94,41.4H14c-5.3,0-9.6,4.3-9.6,9.6c0,5.3,4.3,9.6,9.6,9.6h80c5.3,0,9.6-4.3,9.6-9.6
		C103.6,45.7,99.3,41.4,94,41.4L94,41.4z M94,41.4"/>
	<path class="st0" d="M94,76.6H14c-5.3,0-9.6,4.3-9.6,9.6c0,5.3,4.3,9.6,9.6,9.6h80c5.3,0,9.6-4.3,9.6-9.6
		C103.6,80.9,99.3,76.6,94,76.6L94,76.6z M94,76.6"/>
</g>
</svg>
