<svg id="Layer_1" data-name="Layer 1" xmlns="http://www.w3.org/2000/svg" viewBox="0 0 222 222"><defs><style>.cls-1{fill:#fff;}.cls-2{fill:#ed2524;}</style></defs><title>Untitled-1</title><circle class="cls-1" cx="111" cy="111" r="111"/><path class="cls-2" d="M110.62,80.35a35.19,35.19,0,1,0,35.19,35.19A35.19,35.19,0,0,0,110.62,80.35Zm0,56.3a21.11,21.11,0,1,1,21.12-21.11A21.11,21.11,0,0,1,110.62,136.65Z"/><path class="cls-2" d="M162,87.38a4.93,4.93,0,1,0,4.93,4.92A4.93,4.93,0,0,0,162,87.38Z"/><path class="cls-2" d="M111,0A111,111,0,1,0,222,111,111,111,0,0,0,111,0Zm70,150.72a14.12,14.12,0,0,1-14.07,14.08H54.32a14.12,14.12,0,0,1-14.07-14.08V87.39A14.12,14.12,0,0,1,54.32,73.31h16.9a6.26,6.26,0,0,0,5.55-4l4.37-13.1a6.25,6.25,0,0,1,5.55-4h47.87a6.26,6.26,0,0,1,5.55,4l4.37,13.1a6.26,6.26,0,0,0,5.55,4h16.9A14.12,14.12,0,0,1,181,87.39Z"/></svg>