<?xml version="1.0" encoding="utf-8"?>
<!-- Generator: Adobe Illustrator 21.1.0, SVG Export Plug-In . SVG Version: 6.00 Build 0)  -->
<svg version="1.1" id="Layer_1" xmlns="http://www.w3.org/2000/svg" xmlns:xlink="http://www.w3.org/1999/xlink" x="0px" y="0px"
	 viewBox="0 0 62.9 59" style="enable-background:new 0 0 62.9 59;" xml:space="preserve">
<style type="text/css">
	.st0{fill:#004085;}
</style>
<title>print</title>
<g id="Layer_2">
	<g id="Layer_1-2">
		<path class="st0" d="M15.7,47.2V59h31.5V39.3H15.7V47.2z M19.7,43.3h23.6v3.9H19.7L19.7,43.3z M19.7,51.1h23.6v3.9H19.7L19.7,51.1
			z"/>
		<polygon class="st0" points="47.2,11.8 47.2,0 15.7,0 15.7,11.8 15.7,19.7 47.2,19.7 		"/>
		<path class="st0" d="M55.1,11.8h-3.9v11.8H11.8V11.8H7.9c-3.9,0-7.9,3.9-7.9,7.9v19.7c0,3.9,3.9,7.9,7.9,7.9h3.9V35.4h39.3v11.8
			h3.9c3.9,0,7.9-3.9,7.9-7.9V19.7C62.9,15.7,59,11.8,55.1,11.8"/>
	</g>
</g>
</svg>
