<svg id="Layer_1" data-name="Layer 1" xmlns="http://www.w3.org/2000/svg" viewBox="0 0 335.13 123.1"><defs><style>.cls-1{fill:#fff;}</style></defs><title>Untitled-1</title><path class="cls-1" d="M98.81,25.23H95.65v-7A18.22,18.22,0,0,0,77.46,0H39.26A18.22,18.22,0,0,0,21.07,18.19v7H18.19A18.22,18.22,0,0,0,0,43.42V72.76A18.21,18.21,0,0,0,18.19,91h2.86V114a9.1,9.1,0,0,0,9.08,9.08H86.54A9.1,9.1,0,0,0,95.62,114V91h3.19A18.21,18.21,0,0,0,117,72.76V43.42A18.22,18.22,0,0,0,98.81,25.23Zm-70.87-7a11.32,11.32,0,0,1,11.3-11.3H77.4a11.33,11.33,0,0,1,11.31,11.3v7H27.94Zm60.79,95.88a2.2,2.2,0,0,1-2.19,2.19H30.13a2.2,2.2,0,0,1-2.19-2.19V76H88.73Zm21.38-41.28a11.33,11.33,0,0,1-11.3,11.3H95.65V76h4.54a3.45,3.45,0,0,0,0-6.89H16A3.45,3.45,0,1,0,16,76h5.07v8.06H18.19a11.33,11.33,0,0,1-11.3-11.3V43.45a11.32,11.32,0,0,1,11.3-11.3H98.81a11.32,11.32,0,0,1,11.3,11.3Zm0,0"/><path class="cls-1" d="M36.28,93H80.14a3.45,3.45,0,0,0,0-6.89H36.28a3.45,3.45,0,1,0,0,6.89Zm0,0"/><path class="cls-1" d="M80.42,100.16H36.53a3.45,3.45,0,0,0,0,6.89H80.39a3.45,3.45,0,0,0,0-6.89Zm0,0"/><path class="cls-1" d="M98.73,38.75h-7a3.45,3.45,0,0,0,0,6.89h7a3.45,3.45,0,1,0,0-6.89Zm0,0"/><path class="cls-1" d="M155.92,85V60.56l-15-22.18a2.45,2.45,0,0,1-.57-1.3c0-.81,1.1-1.22,3.31-1.22h.79a6.72,6.72,0,0,1,1.94.22,2.07,2.07,0,0,1,1.16.86l11.8,17.71,12.1-17.78c.43-.67,1.51-1,3.24-1h.5a6.65,6.65,0,0,1,2.16.36.92.92,0,0,1,.65.86,2.45,2.45,0,0,1-.57,1.3L162.26,60.77V85c0,1.06-1,1.59-2.88,1.59h-.58Q155.92,86.55,155.92,85Z"/><path class="cls-1" d="M183.28,84.1C181,82.28,179.9,79.59,179.9,76q0-5.69,3.42-8.54a17.39,17.39,0,0,1,8.38-3.67,80.67,80.67,0,0,1,12.1-.9V59.55a5.6,5.6,0,0,0-1.87-4.36c-1.25-1.12-3.27-1.69-6.05-1.69a18.1,18.1,0,0,0-5.54.76,29.48,29.48,0,0,0-4,1.51,13.22,13.22,0,0,1-1.73.75c-.48,0-1-.47-1.62-1.44a4.75,4.75,0,0,1-.9-2.16c0-.62.63-1.29,1.91-2a19.93,19.93,0,0,1,5.07-1.84,28.35,28.35,0,0,1,6.55-.75q6.71,0,10.44,3a10.06,10.06,0,0,1,3.75,8.32V75.75a37,37,0,0,0,.43,6.8c.29,1.37.43,2.13.43,2.27,0,.58-.45,1-1.37,1.26a8.89,8.89,0,0,1-2.52.4,1.54,1.54,0,0,1-1.47-1.12,12.73,12.73,0,0,1-.72-2.34l-.33-1.58a15.66,15.66,0,0,1-12.09,5.4A13.74,13.74,0,0,1,183.28,84.1Zm15.3-3.82a24.65,24.65,0,0,0,5.22-3.67V68.12q-5.4.07-8.82.43a13.7,13.7,0,0,0-6,2,5.65,5.65,0,0,0-2.59,5.12,5.87,5.87,0,0,0,1.54,4.39,6.31,6.31,0,0,0,4.58,1.51A13.21,13.21,0,0,0,198.58,80.28Z"/><path class="cls-1" d="M218.85,85.11a5.86,5.86,0,0,1-.58-2.38,1.26,1.26,0,0,1,.22-.79l21.09-28H221.15a1.23,1.23,0,0,1-1.08-.5,2.94,2.94,0,0,1-.36-1.66v-.86a2.94,2.94,0,0,1,.36-1.66,1.25,1.25,0,0,1,1.08-.5h25.27c.34,0,.66.44,1,1.33a7.38,7.38,0,0,1,.46,2.41,1.54,1.54,0,0,1-.14.72l-21,28h19.8a1.23,1.23,0,0,1,1.11.5,3.16,3.16,0,0,1,.33,1.66v.86a3.13,3.13,0,0,1-.33,1.66,1.2,1.2,0,0,1-1.11.5H219.86C219.57,86.4,219.23,86,218.85,85.11Z"/><path class="cls-1" d="M261.11,84.39a15.39,15.39,0,0,1-4.86-6.84,27.45,27.45,0,0,1-1.69-9.94,26.76,26.76,0,0,1,1.84-10.47,14.36,14.36,0,0,1,5.14-6.59,13.35,13.35,0,0,1,7.64-2.23,15.47,15.47,0,0,1,5.58.93A19,19,0,0,1,279.47,52V33.84c0-1.05,1-1.58,2.88-1.58h.29c1.92,0,2.88.53,2.88,1.58V75.75a37,37,0,0,0,.43,6.8c.29,1.37.43,2.13.43,2.27,0,.58-.45,1-1.36,1.26a9,9,0,0,1-2.52.4A1.55,1.55,0,0,1,281,85.36,12.73,12.73,0,0,1,280.3,83c-.17-.81-.28-1.34-.32-1.58q-5.19,5.4-11.45,5.4A11.79,11.79,0,0,1,261.11,84.39Zm13.65-4.11a16.28,16.28,0,0,0,4.71-3.67V56.88a13.43,13.43,0,0,0-8.85-3.23,8.35,8.35,0,0,0-7.28,3.45Q260.9,60.55,260.9,67q0,7,2.3,10.76a7.27,7.27,0,0,0,6.55,3.78A11,11,0,0,0,274.76,80.28Z"/><path class="cls-1" d="M298.05,85V50.19q0-1.59,2.88-1.59h.28q2.88,0,2.88,1.59V85q0,1.59-2.88,1.59h-.28Q298,86.55,298.05,85Z"/><path class="cls-1" d="M317.05,85V59.69a37,37,0,0,0-.43-6.8c-.29-1.37-.43-2.13-.43-2.27,0-.58.46-1,1.37-1.26a9.26,9.26,0,0,1,2.52-.4,1.54,1.54,0,0,1,1.47,1,10.41,10.41,0,0,1,.72,2.19c.17.77.28,1.28.33,1.52q3.81-5.4,8.35-5.4a5.18,5.18,0,0,1,3.1.79,2.41,2.41,0,0,1,1.08,2,8.25,8.25,0,0,1-.44,2.56c-.28.89-.62,1.33-1,1.33a5.22,5.22,0,0,1-1.41-.39,7.07,7.07,0,0,0-2.55-.4,5.61,5.61,0,0,0-3.14,1,12.2,12.2,0,0,0-2.48,2.13,6.4,6.4,0,0,0-1,1.29V85q0,1.59-2.88,1.59h-.29Q317,86.55,317.05,85Z"/></svg>