<svg id="Layer_1" data-name="Layer 1" xmlns="http://www.w3.org/2000/svg" viewBox="0 0 222 222"><defs><style>.cls-1{fill:#013370;}.cls-2{fill:#fff;}</style></defs><title>Untitled-1</title><circle class="cls-1" cx="111" cy="111" r="111"/><path class="cls-2" d="M158.83,69.65H135.46V66.26a13.13,13.13,0,0,0-13.12-13.11H99.66A13.13,13.13,0,0,0,86.54,66.26v3.39H63.17a3.69,3.69,0,0,0,0,7.37h5.26v74.31A17.54,17.54,0,0,0,86,168.85h50.1a17.54,17.54,0,0,0,17.52-17.52V77h5.26a3.69,3.69,0,0,0,0-7.37Zm-64.92,0V66.26a5.76,5.76,0,0,1,5.75-5.75h22.68a5.76,5.76,0,0,1,5.75,5.75v3.39Zm52.29,81.68a10.17,10.17,0,0,1-10.15,10.16H86A10.17,10.17,0,0,1,75.8,151.33V77h70.43Z"/><path class="cls-2" d="M111,151.07a3.68,3.68,0,0,0,3.68-3.68V91.12a3.68,3.68,0,0,0-7.36,0v56.25A3.69,3.69,0,0,0,111,151.07Z"/><path class="cls-2" d="M90.22,147.56a3.7,3.7,0,0,0,3.69-3.69V94.61a3.69,3.69,0,0,0-7.37,0v49.26A3.69,3.69,0,0,0,90.22,147.56Z"/><path class="cls-2" d="M131.78,147.56a3.69,3.69,0,0,0,3.68-3.69V94.61a3.69,3.69,0,0,0-7.37,0v49.26A3.7,3.7,0,0,0,131.78,147.56Z"/></svg>