<svg id="Layer_1" data-name="Layer 1" xmlns="http://www.w3.org/2000/svg" viewBox="0 0 222 222"><defs><style>.cls-1{fill:#fff;}.cls-2{fill:#ed2524;}</style></defs><title>Untitled-1</title><circle class="cls-1" cx="111" cy="111" r="111"/><path class="cls-2" d="M157,91.47a3.5,3.5,0,1,0,3.5,3.5A3.5,3.5,0,0,0,157,91.47Z"/><path class="cls-2" d="M137.94,107.07c-1.47,0-2.26,1-2.38,2.86-.06,1.59-.09,3.07-.09,4.42s0,2.75.09,4.46c.12,1.91.91,2.87,2.38,2.87s2.27-1,2.38-2.87c.06-.86.09-2.34.09-4.46s0-3.62-.09-4.42C140.21,108.05,139.41,107.1,137.94,107.07Z"/><path class="cls-2" d="M106.92,116a3.19,3.19,0,0,0-2.18.75,2.68,2.68,0,0,0-.86,2.12,2.71,2.71,0,0,0,.86,2.1,3.49,3.49,0,0,0,4.37,0,2.71,2.71,0,0,0,.86-2.1,2.68,2.68,0,0,0-.86-2.12A3.22,3.22,0,0,0,106.92,116Z"/><path class="cls-2" d="M111,0A111,111,0,1,0,222,111,111,111,0,0,0,111,0Zm70.3,158.74-1.93,6.89-7.12,1.27A343.06,343.06,0,0,1,111,172.45a343.06,343.06,0,0,1-61.27-5.55l-7.13-1.27-1.92-6.89a174.61,174.61,0,0,1,0-95.81L42.58,56l7.13-1.27a341.58,341.58,0,0,1,122.54,0L179.37,56l1.93,6.9a174.61,174.61,0,0,1,0,95.81Z"/><path class="cls-2" d="M111,64.62a322.34,322.34,0,0,0-56.15,4.89,158.84,158.84,0,0,0,0,82.65A323.31,323.31,0,0,0,111,157.05a323.31,323.31,0,0,0,56.15-4.89,158.84,158.84,0,0,0,0-82.65A322.34,322.34,0,0,0,111,64.62Zm-22.72,60.9a11.87,11.87,0,0,1-5.14,3.55,20.64,20.64,0,0,1-7.43,1.26,19.36,19.36,0,0,1-8.14-1.48,11.07,11.07,0,0,1-4.66-3.6,7.83,7.83,0,0,1-1.54-4.1,1,1,0,0,1,.28-.69.94.94,0,0,1,.69-.28h8.87a1.74,1.74,0,0,1,.83.17,3.58,3.58,0,0,1,.67.53,2.6,2.6,0,0,0,1.1.66,6.34,6.34,0,0,0,1.94.23,3.14,3.14,0,0,0,2.18-.67,2.15,2.15,0,0,0,.73-1.67q0-2-2.91-2H70.21a1.1,1.1,0,0,1-.83-.35,1.12,1.12,0,0,1-.36-.84v-3.57a2.12,2.12,0,0,1,.27-1.09,1.87,1.87,0,0,1,.62-.68L76,107.6H64.43a1.23,1.23,0,0,1-1.19-1.2v-6.22A1.21,1.21,0,0,1,64.43,99H87a1.21,1.21,0,0,1,1.19,1.19v5.61a2,2,0,0,1-.27,1,2.25,2.25,0,0,1-.62.73l-5.16,3.53q8,2,7.94,9.14A8.17,8.17,0,0,1,88.26,125.52Zm31.15-.89a12.32,12.32,0,0,1-5,4.18,17.05,17.05,0,0,1-7.3,1.52,19.66,19.66,0,0,1-7.5-1.35A11.5,11.5,0,0,1,94.37,125a10.2,10.2,0,0,1-1.87-6.13,10.77,10.77,0,0,1,1.36-5.06,32.4,32.4,0,0,1,2.92-4.57l7.19-9.4a2,2,0,0,1,1.72-.88h8.87a.93.93,0,0,1,.68.28,1,1,0,0,1,.29.69,1,1,0,0,1-.18.57l-5.56,7.37a13.39,13.39,0,0,1,5,1.42,12.48,12.48,0,0,1,4.53,3.68,9.09,9.09,0,0,1,1.85,5.68A10.27,10.27,0,0,1,119.41,124.63ZM151.8,119a11.65,11.65,0,0,1-3.93,8.17q-3.52,3.09-9.93,3.13T128,127.2a11.6,11.6,0,0,1-3.92-8.17c-.09-1.21-.14-2.75-.14-4.64s0-3.48.14-4.72a11.24,11.24,0,0,1,1.92-5.76,11.55,11.55,0,0,1,4.76-3.93,18.69,18.69,0,0,1,14.34,0,11.58,11.58,0,0,1,4.77,3.93,11.43,11.43,0,0,1,1.92,5.76c.08,1.24.13,2.81.13,4.72S151.88,117.82,151.8,119ZM157,102.2A7.24,7.24,0,1,1,164.22,95,7.23,7.23,0,0,1,157,102.2Z"/></svg>