<svg id="Layer_1" data-name="Layer 1" xmlns="http://www.w3.org/2000/svg" viewBox="0 0 222 222"><defs><style>.cls-1{fill:#013370;}.cls-2{fill:#fff;}</style></defs><title>Untitled-1</title><circle class="cls-1" cx="111" cy="111" r="111"/><path class="cls-2" d="M114.8,97.5h-8.46V89a5.46,5.46,0,1,0-10.91,0V97.5H87a5.46,5.46,0,0,0,0,10.91h8.46v8.46a5.46,5.46,0,0,0,10.91,0v-8.46h8.46a5.46,5.46,0,1,0,0-10.91Z"/><path class="cls-2" d="M161.21,148.45,137,124.22a42.6,42.6,0,1,0-11.75,12.33l23.94,23.95a8.52,8.52,0,0,0,12.05-12.05Zm-34.4-34.38a29.28,29.28,0,0,1-4.81,7.06l-.07.08c-.47.49-1,1-1.44,1.44l-.17.15a28.24,28.24,0,0,1-5.11,3.75,28.89,28.89,0,1,1,11.6-12.48Z"/></svg>