<svg id="Layer_1" data-name="Layer 1" xmlns="http://www.w3.org/2000/svg" viewBox="0 0 222 222"><defs><style>.cls-1{fill:#013370;}.cls-2{fill:#fff;}</style></defs><title>Untitled-1</title><circle class="cls-1" cx="111" cy="111" r="111"/><path class="cls-2" d="M100.89,59a42.59,42.59,0,1,0,24.33,77.54l23.94,23.95a8.52,8.52,0,0,0,12.05-12.05L137,124.22A42.58,42.58,0,0,0,100.89,59Zm25.92,55.06a29.28,29.28,0,0,1-4.81,7.06l-.07.08c-.47.49-1,1-1.44,1.44l-.17.15a28.24,28.24,0,0,1-5.11,3.75,28.89,28.89,0,1,1,11.6-12.48Z"/></svg>